#N canvas 69 22 1144 487 10;
#X obj 1043 128 mousestate;
#X obj 1091 157 nbx 4 14 -1e+37 1e+37 0 0 empty empty y 0 -8 0 10 -204786
-1 -1 106 256;
#X obj 1039 157 nbx 4 14 -1e+37 1e+37 0 0 empty empty x 0 -8 0 10 -262130
-1 -1 1058 256;
#X obj 1040 71 tgl 30 0 empty empty go 5 13 0 16 -204800 -1 -1 0 1
;
#X obj 1073 32 vradio 15 1 0 3 empty empty empty 0 -8 0 10 -228856
-1 -1 1;
#X msg 1073 82 mode \$1;
#X msg 1040 32 1;
#X obj 1040 12 loadbang;
#X obj 341 12 bng 230 250 50 0 empty empty empty 17 7 0 10 -261682
-1 -1;
#X obj 381 52 bng 150 250 50 0 empty empty empty 17 7 0 10 -260097
-1 -1;
#X obj 411 82 bng 90 250 50 0 empty empty empty 17 7 0 10 -86853 -1
-1;
#X obj 572 12 bng 230 250 50 0 empty empty empty 17 7 0 10 -262130
-1 -1;
#X obj 612 51 bng 150 250 50 0 empty empty empty 17 7 0 10 -257985
-1 -1;
#X obj 642 81 bng 90 250 50 0 empty empty empty 17 7 0 10 -83269 -1
-1;
#X obj 803 12 bng 230 250 50 0 empty empty empty 17 7 0 10 -204786
-1 -1;
#X obj 843 52 bng 150 250 50 0 empty empty empty 17 7 0 10 -4034 -1
-1;
#X obj 874 81 bng 90 250 50 0 empty empty empty 17 7 0 10 -13381 -1
-1;
#X obj 802 243 bng 230 250 50 0 empty empty empty 17 7 0 10 -204800
-1 -1;
#X obj 842 283 bng 150 250 50 0 empty empty empty 17 7 0 10 -4032 -1
-1;
#X obj 872 313 bng 90 250 50 0 empty empty empty 17 7 0 10 -13330 -1
-1;
#X obj 571 243 bng 230 250 50 0 empty empty empty 17 7 0 10 -203904
-1 -1;
#X obj 611 283 bng 150 250 50 0 empty empty empty 17 7 0 10 -4160 -1
-1;
#X obj 641 313 bng 90 250 50 0 empty empty empty 17 7 0 10 -16662 -1
-1;
#X obj 342 243 bng 230 250 50 0 empty empty empty 17 7 0 10 -232576
-1 -1;
#X obj 382 283 bng 150 250 50 0 empty empty empty 17 7 0 10 -159808
-1 -1;
#X obj 413 313 bng 90 250 50 0 empty empty empty 17 7 0 10 -45076 -1
-1;
#X obj 111 243 bng 230 250 50 0 empty empty empty 17 7 0 10 -191407
-1 -1;
#X obj 152 283 bng 150 250 50 0 empty empty empty 17 7 0 10 -99865
-1 -1;
#X obj 183 313 bng 90 250 50 0 empty empty empty 17 7 0 10 -1 -1 -1
;
#X obj 111 12 bng 230 250 50 0 empty empty empty 17 7 0 10 -261234
-1 -1;
#X obj 151 51 bng 150 250 50 0 empty empty empty 17 7 0 10 -258113
-1 -1;
#X obj 181 80 bng 90 250 50 0 empty empty empty 17 7 0 10 -86277 -1
-1;
#N canvas 0 22 1280 756 sons/trames 0;
#X floatatom 124 197 5 0 0 0 - - -;
#X msg 124 216 \$1 20;
#X obj 124 238 line~;
#X obj 26 280 dac~;
#X obj 26 252 *~;
#X obj 52 252 *~;
#X obj 26 188 bng 25 250 50 0 empty empty empty 17 7 0 10 -261234 -1
-1;
#X obj 818 445 soundfiler;
#N canvas 0 22 450 278 (subpatch) 0;
#X array tab01 8.775e+06 float 2;
#X coords 0 1 8.775e+06 -1 75 50 1 0 0;
#X restore 774 21 graph;
#X obj 811 289 loadbang;
#N canvas 0 22 450 278 (subpatch) 0;
#X array tab02 8.60269e+06 float 2;
#X coords 0 1 8.60269e+06 -1 75 50 1 0 0;
#X restore 774 89 graph;
#N canvas 0 22 450 278 (subpatch) 0;
#X array tab03 8.508e+06 float 2;
#X coords 0 1 8.508e+06 -1 75 50 1 0 0;
#X restore 775 159 graph;
#N canvas 0 22 450 278 (subpatch) 0;
#X array tab04 8.568e+06 float 2;
#X coords 0 1 8.568e+06 -1 75 50 1 0 0;
#X restore 775 227 graph;
#N canvas 0 22 450 278 (subpatch) 0;
#X array tab05 8.94089e+06 float 2;
#X coords 0 1 8.94089e+06 -1 75 50 1 0 0;
#X restore 856 21 graph;
#N canvas 0 22 450 278 (subpatch) 0;
#X array tab06 8.13673e+06 float 2;
#X coords 0 1 8.13673e+06 -1 75 50 1 0 0;
#X restore 856 89 graph;
#N canvas 0 22 450 278 (subpatch) 0;
#X array tab07 8.58264e+06 float 2;
#X coords 0 1 8.58264e+06 -1 75 50 1 0 0;
#X restore 857 159 graph;
#N canvas 0 22 450 278 (subpatch) 0;
#X array tab08 8.85249e+06 float 2;
#X coords 0 1 8.85249e+06 -1 75 50 1 0 0;
#X restore 857 227 graph;
#N canvas 0 22 450 278 (subpatch) 0;
#X array tab09 580650 float 2;
#X coords 0 1 580650 -1 75 50 1 0 0;
#X restore 939 21 graph;
#N canvas 0 22 450 278 (subpatch) 0;
#X array tab10 264600 float 2;
#X coords 0 1 264600 -1 75 50 1 0 0;
#X restore 939 89 graph;
#N canvas 0 22 450 278 (subpatch) 0;
#X array tab11 1.06575e+06 float 2;
#X coords 0 1 1.06575e+06 -1 75 50 1 0 0;
#X restore 940 159 graph;
#N canvas 0 22 450 278 (subpatch) 0;
#X array tab12 639450 float 2;
#X coords 0 1 639450 -1 75 50 1 0 0;
#X restore 940 227 graph;
#N canvas 0 22 450 278 (subpatch) 0;
#X array tab13 536550 float 2;
#X coords 0 1 536550 -1 75 50 1 0 0;
#X restore 1021 21 graph;
#N canvas 0 22 450 278 (subpatch) 0;
#X array tab14 283893 float 2;
#X coords 0 1 283893 -1 75 50 1 0 0;
#X restore 1021 89 graph;
#N canvas 0 22 450 278 (subpatch) 0;
#X array tab15 1.95694e+06 float 2;
#X coords 0 1 1.95694e+06 -1 75 50 1 0 0;
#X restore 1022 159 graph;
#N canvas 0 22 450 278 (subpatch) 0;
#X array tab16 84000 float 2;
#X coords 0 1 84000 -1 75 50 1 0 0;
#X restore 1022 227 graph;
#N canvas 0 22 450 278 (subpatch) 0;
#X array tab17 84000 float 2;
#X coords 0 1 84000 -1 75 50 1 0 0;
#X restore 1104 21 graph;
#N canvas 0 22 450 278 (subpatch) 0;
#X array tab18 84000 float 2;
#X coords 0 1 84000 -1 75 50 1 0 0;
#X restore 1104 89 graph;
#N canvas 0 22 450 278 (subpatch) 0;
#X array tab19 84000 float 2;
#X coords 0 1 84000 -1 75 50 1 0 0;
#X restore 1105 159 graph;
#N canvas 0 22 450 278 (subpatch) 0;
#X array tab20 84000 float 2;
#X coords 0 1 84000 -1 75 50 1 0 0;
#X restore 1105 227 graph;
#N canvas 0 22 450 278 (subpatch) 0;
#X array tab21 84000 float 2;
#X coords 0 1 84000 -1 75 50 1 0 0;
#X restore 1186 21 graph;
#N canvas 0 22 450 278 (subpatch) 0;
#X array tab22 84000 float 2;
#X coords 0 1 84000 -1 75 50 1 0 0;
#X restore 1186 89 graph;
#N canvas 0 22 450 278 (subpatch) 0;
#X array tab23 84000 float 2;
#X coords 0 1 84000 -1 75 50 1 0 0;
#X restore 1187 159 graph;
#N canvas 0 22 450 278 (subpatch) 0;
#X array tab24 84000 float 2;
#X coords 0 1 84000 -1 75 50 1 0 0;
#X restore 1187 227 graph;
#X msg 979 605 read -resize FluteDesc-Y.wav tab16;
#X msg 986 625 read -resize FluteDesc-Y.wav tab17;
#X msg 993 645 read -resize FluteDesc-Y.wav tab18;
#X msg 1000 665 read -resize FluteDesc-Y.wav tab19;
#X msg 1007 685 read -resize FluteDesc-Y.wav tab20;
#X msg 1015 706 read -resize FluteDesc-Y.wav tab21;
#X msg 1022 726 read -resize FluteDesc-Y.wav tab22;
#X msg 1029 746 read -resize FluteDesc-Y.wav tab23;
#X msg 1036 766 read -resize FluteDesc-Y.wav tab24;
#X obj 127 175 hsl 50 15 0 5 0 0 empty empty empty -2 -8 0 10 -232576
-1 -1 0 0;
#X obj 22 21 inlet;
#X obj 65 21 inlet;
#X floatatom 22 42 5 0 0 0 - - -;
#X floatatom 65 42 5 0 0 0 - - -;
#X text 21 3 x;
#X text 67 3 y;
#X obj 22 106 bng 15 250 50 0 empty empty empty 17 7 0 10 -261234 -1
-1;
#X obj 124 153 line;
#X obj 214 189 bng 25 250 50 0 empty empty empty 17 7 0 10 -261682
-1 -1;
#X floatatom 315 198 5 0 0 0 - - -;
#X msg 315 217 \$1 20;
#X obj 315 239 line~;
#X obj 215 281 dac~;
#X obj 215 252 *~;
#X obj 241 252 *~;
#X obj 318 176 hsl 50 15 0 5 0 0 empty empty empty -2 -8 0 10 -232576
-1 -1 0 0;
#X obj 315 153 line;
#X obj 192 104 bng 15 250 50 0 empty empty empty 17 7 0 10 -261234
-1 -1;
#X obj 407 189 bng 25 250 50 0 empty empty empty 17 7 0 10 -262130
-1 -1;
#X floatatom 508 198 5 0 0 0 - - -;
#X msg 508 217 \$1 20;
#X obj 508 239 line~;
#X obj 408 281 dac~;
#X obj 408 252 *~;
#X obj 434 252 *~;
#X obj 511 176 hsl 50 15 0 5 0 0 empty empty empty -2 -8 0 10 -232576
-1 -1 0 0;
#X obj 508 153 line;
#X obj 598 186 bng 25 250 50 0 empty empty empty 17 7 0 10 -204786
-1 -1;
#X floatatom 699 198 5 0 0 0 - - -;
#X msg 699 217 \$1 20;
#X obj 699 239 line~;
#X obj 599 281 dac~;
#X obj 599 252 *~;
#X obj 625 252 *~;
#X obj 702 176 hsl 50 15 0 5 0 0 empty empty empty -2 -8 0 10 -232576
-1 -1 191 0;
#X obj 699 153 line;
#X floatatom 125 444 5 0 0 0 - - -;
#X msg 125 463 \$1 20;
#X obj 125 485 line~;
#X obj 27 527 dac~;
#X obj 27 499 *~;
#X obj 53 499 *~;
#X obj 27 435 bng 25 250 50 0 empty empty empty 17 7 0 10 -191407 -1
-1;
#X obj 128 422 hsl 50 15 0 5 0 0 empty empty empty -2 -8 0 10 -232576
-1 -1 0 0;
#X obj 125 400 line;
#X obj 215 433 bng 25 250 50 0 empty empty empty 17 7 0 10 -232576
-1 -1;
#X floatatom 316 445 5 0 0 0 - - -;
#X msg 316 464 \$1 20;
#X obj 316 486 line~;
#X obj 216 528 dac~;
#X obj 216 499 *~;
#X obj 242 499 *~;
#X obj 319 423 hsl 50 15 0 5 0 0 empty empty empty -2 -8 0 10 -232576
-1 -1 0 0;
#X obj 316 400 line;
#X obj 408 433 bng 25 250 50 0 empty empty empty 17 7 0 10 -203904
-1 -1;
#X floatatom 509 445 5 0 0 0 - - -;
#X msg 509 464 \$1 20;
#X obj 509 486 line~;
#X obj 409 528 dac~;
#X obj 409 499 *~;
#X obj 435 499 *~;
#X obj 512 423 hsl 50 15 0 5 0 0 empty empty empty -2 -8 0 10 -232576
-1 -1 0 0;
#X obj 509 400 line;
#X obj 599 433 bng 25 250 50 0 empty empty empty 17 7 0 10 -204800
-1 -1;
#X floatatom 700 445 5 0 0 0 - - -;
#X msg 700 464 \$1 20;
#X obj 700 486 line~;
#X obj 600 528 dac~;
#X obj 600 499 *~;
#X obj 626 499 *~;
#X obj 703 423 hsl 50 15 0 5 0 0 empty empty empty -2 -8 0 10 -232576
-1 -1 159 0;
#X obj 700 400 line;
#X obj 414 104 bng 15 250 50 0 empty empty empty 17 7 0 10 -261234
-1 -1;
#X obj 613 101 bng 15 250 50 0 empty empty empty 17 7 0 10 -261234
-1 -1;
#X obj 598 220 tabplay~ tab04;
#X obj 616 353 bng 15 250 50 0 empty empty empty 17 7 0 10 -261234
-1 -1;
#X obj 599 467 tabplay~ tab05;
#X obj 427 355 bng 15 250 50 0 empty empty empty 17 7 0 10 -261234
-1 -1;
#X obj 408 467 tabplay~ tab06;
#X obj 225 355 bng 15 250 50 0 empty empty empty 17 7 0 10 -261234
-1 -1;
#X obj 215 467 tabplay~ tab07;
#X obj 22 356 bng 15 250 50 0 empty empty empty 17 7 0 10 -261234 -1
-1;
#X obj 27 466 tabplay~ tab08;
#X floatatom 125 702 5 0 0 0 - - -;
#X msg 125 721 \$1 20;
#X obj 125 743 line~;
#X obj 27 785 dac~;
#X obj 27 757 *~;
#X obj 53 757 *~;
#X obj 27 693 bng 25 250 50 0 empty empty empty 17 7 0 10 -258113 -1
-1;
#X obj 128 680 hsl 50 15 0 5 0 0 empty empty empty -2 -8 0 10 -232576
-1 -1 0 0;
#X obj 23 611 bng 15 250 50 0 empty empty empty 17 7 0 10 -261234 -1
-1;
#X obj 125 658 line;
#X obj 215 694 bng 25 250 50 0 empty empty empty 17 7 0 10 -260097
-1 -1;
#X floatatom 316 703 5 0 0 0 - - -;
#X msg 316 722 \$1 20;
#X obj 316 744 line~;
#X obj 216 786 dac~;
#X obj 216 757 *~;
#X obj 242 757 *~;
#X obj 319 681 hsl 50 15 0 5 0 0 empty empty empty -2 -8 0 10 -232576
-1 -1 0 0;
#X obj 316 658 line;
#X obj 193 609 bng 15 250 50 0 empty empty empty 17 7 0 10 -261234
-1 -1;
#X msg 136 635 0 1500;
#X msg 316 616 5 1500;
#X msg 330 637 0 1500;
#X msg 125 611 3 750;
#X obj 408 694 bng 25 250 50 0 empty empty empty 17 7 0 10 -257985
-1 -1;
#X floatatom 509 703 5 0 0 0 - - -;
#X msg 509 722 \$1 20;
#X obj 509 744 line~;
#X obj 409 786 dac~;
#X obj 409 757 *~;
#X obj 435 757 *~;
#X obj 512 681 hsl 50 15 0 5 0 0 empty empty empty -2 -8 0 10 -232576
-1 -1 0 0;
#X obj 509 658 line;
#X msg 523 637 0 1500;
#X obj 599 691 bng 25 250 50 0 empty empty empty 17 7 0 10 -4034 -1
-1;
#X floatatom 700 703 5 0 0 0 - - -;
#X msg 700 722 \$1 20;
#X obj 700 744 line~;
#X obj 600 786 dac~;
#X obj 600 757 *~;
#X obj 626 757 *~;
#X obj 703 681 hsl 50 15 0 5 0 0 empty empty empty -2 -8 0 10 -232576
-1 -1 141 0;
#X obj 700 658 line;
#X msg 714 637 0 1500;
#X floatatom 128 927 5 0 0 0 - - -;
#X msg 128 946 \$1 20;
#X obj 128 968 line~;
#X obj 30 1010 dac~;
#X obj 30 982 *~;
#X obj 56 982 *~;
#X obj 30 918 bng 25 250 50 0 empty empty empty 17 7 0 10 -99865 -1
-1;
#X obj 131 905 hsl 50 15 0 5 0 0 empty empty empty -2 -8 0 10 -232576
-1 -1 0 0;
#X obj 128 883 line;
#X obj 218 916 bng 25 250 50 0 empty empty empty 17 7 0 10 -159808
-1 -1;
#X floatatom 319 928 5 0 0 0 - - -;
#X msg 319 947 \$1 20;
#X obj 319 969 line~;
#X obj 219 1011 dac~;
#X obj 219 982 *~;
#X obj 245 982 *~;
#X obj 322 906 hsl 50 15 0 5 0 0 empty empty empty -2 -8 0 10 -232576
-1 -1 0 0;
#X obj 319 883 line;
#X msg 319 841 5 1500;
#X msg 333 862 0 1500;
#X msg 128 836 3 750;
#X obj 411 916 bng 25 250 50 0 empty empty empty 17 7 0 10 -4160 -1
-1;
#X floatatom 512 928 5 0 0 0 - - -;
#X msg 512 947 \$1 20;
#X obj 512 969 line~;
#X obj 412 1011 dac~;
#X obj 412 982 *~;
#X obj 438 982 *~;
#X obj 515 906 hsl 50 15 0 5 0 0 empty empty empty -2 -8 0 10 -232576
-1 -1 0 0;
#X obj 512 883 line;
#X msg 512 841 5 1500;
#X msg 526 862 0 1500;
#X obj 602 916 bng 25 250 50 0 empty empty empty 17 7 0 10 -4032 -1
-1;
#X floatatom 703 928 5 0 0 0 - - -;
#X msg 703 947 \$1 20;
#X obj 703 969 line~;
#X obj 603 1011 dac~;
#X obj 603 982 *~;
#X obj 629 982 *~;
#X obj 706 906 hsl 50 15 0 5 0 0 empty empty empty -2 -8 0 10 -232576
-1 -1 183 0;
#X obj 703 883 line;
#X msg 703 841 5 1500;
#X msg 717 862 0 1500;
#X obj 415 609 bng 15 250 50 0 empty empty empty 17 7 0 10 -261234
-1 -1;
#X msg 509 616 3 1500;
#X obj 614 606 bng 15 250 50 0 empty empty empty 17 7 0 10 -261234
-1 -1;
#X msg 700 616 3 1500;
#X obj 619 836 bng 15 250 50 0 empty empty empty 17 7 0 10 -261234
-1 -1;
#X obj 430 838 bng 15 250 50 0 empty empty empty 17 7 0 10 -261234
-1 -1;
#X obj 228 838 bng 15 250 50 0 empty empty empty 17 7 0 10 -261234
-1 -1;
#X obj 25 839 bng 15 250 50 0 empty empty empty 17 7 0 10 -261234 -1
-1;
#X msg 139 860 0 2500;
#X floatatom 129 1184 5 0 0 0 - - -;
#X msg 129 1203 \$1 20;
#X obj 129 1225 line~;
#X obj 31 1267 dac~;
#X obj 31 1239 *~;
#X obj 57 1239 *~;
#X obj 31 1175 bng 25 250 50 0 empty empty empty 17 7 0 10 -86277 -1
-1;
#X obj 132 1162 hsl 50 15 0 5 0 0 empty empty empty -2 -8 0 10 -232576
-1 -1 0 0;
#X obj 27 1093 bng 15 250 50 0 empty empty empty 17 7 0 10 -261234
-1 -1;
#X obj 129 1140 line;
#X obj 219 1176 bng 25 250 50 0 empty empty empty 17 7 0 10 -86853
-1 -1;
#X floatatom 320 1185 5 0 0 0 - - -;
#X msg 320 1204 \$1 20;
#X obj 320 1226 line~;
#X obj 220 1268 dac~;
#X obj 220 1239 *~;
#X obj 246 1239 *~;
#X obj 323 1163 hsl 50 15 0 5 0 0 empty empty empty -2 -8 0 10 -232576
-1 -1 0 0;
#X obj 320 1140 line;
#X obj 197 1091 bng 15 250 50 0 empty empty empty 17 7 0 10 -261234
-1 -1;
#X msg 140 1117 0 1500;
#X msg 320 1098 5 1500;
#X msg 334 1119 0 1500;
#X msg 129 1093 3 750;
#X obj 412 1176 bng 25 250 50 0 empty empty empty 17 7 0 10 -83269
-1 -1;
#X floatatom 513 1185 5 0 0 0 - - -;
#X msg 513 1204 \$1 20;
#X obj 513 1226 line~;
#X obj 413 1268 dac~;
#X obj 413 1239 *~;
#X obj 439 1239 *~;
#X obj 516 1163 hsl 50 15 0 5 0 0 empty empty empty -2 -8 0 10 -232576
-1 -1 0 0;
#X obj 513 1140 line;
#X msg 527 1119 0 1500;
#X obj 603 1173 bng 25 250 50 0 empty empty empty 17 7 0 10 -13381
-1 -1;
#X floatatom 704 1185 5 0 0 0 - - -;
#X msg 704 1204 \$1 20;
#X obj 704 1226 line~;
#X obj 604 1268 dac~;
#X obj 604 1239 *~;
#X obj 630 1239 *~;
#X obj 707 1163 hsl 50 15 0 5 0 0 empty empty empty -2 -8 0 10 -232576
-1 -1 0 0;
#X obj 704 1140 line;
#X msg 718 1119 0 1500;
#X floatatom 130 1406 5 0 0 0 - - -;
#X msg 130 1425 \$1 20;
#X obj 130 1447 line~;
#X obj 32 1489 dac~;
#X obj 32 1461 *~;
#X obj 58 1461 *~;
#X obj 32 1397 bng 25 250 50 0 empty empty empty 17 7 0 10 -1 -1 -1
;
#X obj 133 1384 hsl 50 15 0 5 0 0 empty empty empty -2 -8 0 10 -232576
-1 -1 0 0;
#X obj 130 1362 line;
#X obj 220 1395 bng 25 250 50 0 empty empty empty 17 7 0 10 -45076
-1 -1;
#X floatatom 321 1407 5 0 0 0 - - -;
#X msg 321 1426 \$1 20;
#X obj 321 1448 line~;
#X obj 221 1490 dac~;
#X obj 221 1461 *~;
#X obj 247 1461 *~;
#X obj 324 1385 hsl 50 15 0 5 0 0 empty empty empty -2 -8 0 10 -232576
-1 -1 0 0;
#X obj 321 1362 line;
#X msg 321 1320 5 1500;
#X msg 335 1341 0 1500;
#X msg 130 1315 3 750;
#X obj 413 1395 bng 25 250 50 0 empty empty empty 17 7 0 10 -16662
-1 -1;
#X floatatom 514 1407 5 0 0 0 - - -;
#X msg 514 1426 \$1 20;
#X obj 514 1448 line~;
#X obj 414 1490 dac~;
#X obj 414 1461 *~;
#X obj 440 1461 *~;
#X obj 517 1385 hsl 50 15 0 5 0 0 empty empty empty -2 -8 0 10 -232576
-1 -1 0 0;
#X obj 514 1362 line;
#X msg 514 1320 5 1500;
#X msg 528 1341 0 1500;
#X obj 604 1395 bng 25 250 50 0 empty empty empty 17 7 0 10 -13330
-1 -1;
#X floatatom 705 1407 5 0 0 0 - - -;
#X msg 705 1426 \$1 20;
#X obj 705 1448 line~;
#X obj 605 1490 dac~;
#X obj 605 1461 *~;
#X obj 631 1461 *~;
#X obj 708 1385 hsl 50 15 0 5 0 0 empty empty empty -2 -8 0 10 -232576
-1 -1 0 0;
#X obj 705 1362 line;
#X msg 705 1320 5 1500;
#X msg 719 1341 0 1500;
#X obj 419 1091 bng 15 250 50 0 empty empty empty 17 7 0 10 -261234
-1 -1;
#X msg 513 1098 3 1500;
#X obj 618 1088 bng 15 250 50 0 empty empty empty 17 7 0 10 -261234
-1 -1;
#X msg 704 1098 3 1500;
#X obj 621 1315 bng 15 250 50 0 empty empty empty 17 7 0 10 -261234
-1 -1;
#X obj 432 1317 bng 15 250 50 0 empty empty empty 17 7 0 10 -261234
-1 -1;
#X obj 230 1317 bng 15 250 50 0 empty empty empty 17 7 0 10 -261234
-1 -1;
#X obj 27 1318 bng 15 250 50 0 empty empty empty 17 7 0 10 -261234
-1 -1;
#X msg 141 1339 0 2500;
#N canvas 507 32 408 519 sensor_enceinte_01_G 0;
#X floatatom 187 83 5 0 0 0 - - -;
#X floatatom 227 108 5 0 0 0 - - -;
#X obj 227 183 tgl 25 0 empty empty empty 17 7 0 10 -262144 -1 -1 1
1;
#X obj 227 128 >= 1;
#X obj 154 167 tgl 25 0 empty empty empty 17 7 0 10 -262144 -1 -1 0
1;
#X obj 187 103 >= 1;
#X obj 196 218 +;
#X floatatom 196 239 5 0 0 0 - - -;
#X obj 196 259 == 2;
#X obj 196 284 tgl 25 0 empty empty empty 17 7 0 10 -262144 -1 -1 0
1;
#X floatatom 196 340 5 0 0 0 - - -;
#X obj 196 319 change 0;
#X obj 196 360 sel 0 1;
#X floatatom 9 81 5 0 0 0 - - -;
#X obj 9 101 sel 1;
#X obj 154 143 gate 2;
#X obj 117 100 vradio 15 1 0 3 empty empty empty 0 -8 0 10 -232576
-1 -1 1;
#X msg 117 78 1;
#X msg 149 86 2;
#X obj 192 165 bng 15 250 50 0 empty empty empty 17 7 0 10 -261682
-1 -1;
#X floatatom 51 82 5 0 0 0 - - -;
#X obj 51 102 sel 1;
#X floatatom 9 122 5 0 0 0 - - -;
#X floatatom 51 123 5 0 0 0 - - -;
#X msg 10 141 0;
#X obj 196 439 outlet;
#X obj 215 420 outlet;
#X obj 187 22 inlet;
#X obj 227 22 inlet;
#X obj 227 87 < 266;
#X obj 187 58 < 342;
#X obj 51 61 > 112;
#X obj 9 60 < 112;
#X floatatom 302 79 5 0 0 0 - - -;
#X obj 302 99 sel 1;
#X floatatom 344 80 5 0 0 0 - - -;
#X obj 344 100 sel 1;
#X floatatom 302 120 5 0 0 0 - - -;
#X floatatom 344 121 5 0 0 0 - - -;
#X msg 302 139 0;
#X obj 302 58 < 34;
#X obj 344 59 > 34;
#X obj 227 158 gate 2;
#X obj 260 181 bng 15 250 50 0 empty empty empty 17 7 0 10 -261682
-1 -1;
#X obj 301 189 vradio 15 1 0 3 empty empty empty 0 -8 0 10 -204800
-1 -1 1;
#X msg 301 167 1;
#X msg 333 175 2;
#X connect 0 0 5 0;
#X connect 1 0 3 0;
#X connect 2 0 6 1;
#X connect 3 0 42 1;
#X connect 4 0 6 0;
#X connect 5 0 15 1;
#X connect 6 0 7 0;
#X connect 7 0 8 0;
#X connect 8 0 9 0;
#X connect 9 0 11 0;
#X connect 10 0 12 0;
#X connect 11 0 10 0;
#X connect 12 0 25 0;
#X connect 12 1 26 0;
#X connect 13 0 14 0;
#X connect 14 0 22 0;
#X connect 15 0 4 0;
#X connect 15 1 19 0;
#X connect 16 0 15 0;
#X connect 17 0 16 0;
#X connect 18 0 16 0;
#X connect 20 0 21 0;
#X connect 21 0 23 0;
#X connect 22 0 18 0;
#X connect 22 0 24 0;
#X connect 23 0 17 0;
#X connect 24 0 4 0;
#X connect 27 0 30 0;
#X connect 27 0 31 0;
#X connect 27 0 32 0;
#X connect 28 0 29 0;
#X connect 28 0 40 0;
#X connect 28 0 41 0;
#X connect 29 0 1 0;
#X connect 30 0 0 0;
#X connect 31 0 20 0;
#X connect 32 0 13 0;
#X connect 33 0 34 0;
#X connect 34 0 37 0;
#X connect 35 0 36 0;
#X connect 36 0 38 0;
#X connect 37 0 39 0;
#X connect 37 0 46 0;
#X connect 38 0 45 0;
#X connect 39 0 2 0;
#X connect 40 0 33 0;
#X connect 41 0 35 0;
#X connect 42 0 2 0;
#X connect 42 1 43 0;
#X connect 44 0 42 0;
#X connect 45 0 44 0;
#X connect 46 0 44 0;
#X restore 22 80 pd sensor_enceinte_01_G;
#N canvas 26 282 429 496 sensor_enceinte_02_G 0;
#X floatatom 209 92 5 0 0 0 - - -;
#X floatatom 249 117 5 0 0 0 - - -;
#X obj 249 192 tgl 25 0 empty empty empty 17 7 0 10 -262144 -1 -1 1
1;
#X obj 249 137 >= 1;
#X obj 176 176 tgl 25 0 empty empty empty 17 7 0 10 -262144 -1 -1 0
1;
#X obj 209 112 >= 1;
#X obj 218 227 +;
#X floatatom 218 248 5 0 0 0 - - -;
#X obj 218 268 == 2;
#X obj 218 293 tgl 25 0 empty empty empty 17 7 0 10 -262144 -1 -1 0
1;
#X floatatom 218 349 5 0 0 0 - - -;
#X obj 218 328 change 0;
#X obj 218 369 sel 0 1;
#X floatatom 31 90 5 0 0 0 - - -;
#X obj 31 110 sel 1;
#X obj 176 152 gate 2;
#X obj 139 109 vradio 15 1 0 3 empty empty empty 0 -8 0 10 -232576
-1 -1 1;
#X msg 139 87 1;
#X msg 171 95 2;
#X obj 214 174 bng 15 250 50 0 empty empty empty 17 7 0 10 -261682
-1 -1;
#X floatatom 73 91 5 0 0 0 - - -;
#X obj 73 111 sel 1;
#X floatatom 31 131 5 0 0 0 - - -;
#X floatatom 73 132 5 0 0 0 - - -;
#X msg 32 150 0;
#X obj 218 448 outlet;
#X obj 237 429 outlet;
#X obj 209 31 inlet;
#X obj 249 31 inlet;
#X obj 249 96 < 266;
#X floatatom 324 88 5 0 0 0 - - -;
#X obj 324 108 sel 1;
#X floatatom 366 89 5 0 0 0 - - -;
#X obj 366 109 sel 1;
#X floatatom 324 129 5 0 0 0 - - -;
#X floatatom 366 130 5 0 0 0 - - -;
#X msg 324 148 0;
#X obj 324 67 < 34;
#X obj 366 68 > 34;
#X obj 249 167 gate 2;
#X obj 282 190 bng 15 250 50 0 empty empty empty 17 7 0 10 -261682
-1 -1;
#X obj 323 198 vradio 15 1 0 3 empty empty empty 0 -8 0 10 -204800
-1 -1 1;
#X msg 323 176 1;
#X msg 355 184 2;
#X obj 209 67 < 573;
#X obj 73 70 > 342;
#X obj 31 69 < 342;
#X connect 0 0 5 0;
#X connect 1 0 3 0;
#X connect 2 0 6 1;
#X connect 3 0 39 1;
#X connect 4 0 6 0;
#X connect 5 0 15 1;
#X connect 6 0 7 0;
#X connect 7 0 8 0;
#X connect 8 0 9 0;
#X connect 9 0 11 0;
#X connect 10 0 12 0;
#X connect 11 0 10 0;
#X connect 12 0 25 0;
#X connect 12 1 26 0;
#X connect 13 0 14 0;
#X connect 14 0 22 0;
#X connect 15 0 4 0;
#X connect 15 1 19 0;
#X connect 16 0 15 0;
#X connect 17 0 16 0;
#X connect 18 0 16 0;
#X connect 20 0 21 0;
#X connect 21 0 23 0;
#X connect 22 0 18 0;
#X connect 22 0 24 0;
#X connect 23 0 17 0;
#X connect 24 0 4 0;
#X connect 27 0 44 0;
#X connect 27 0 45 0;
#X connect 27 0 46 0;
#X connect 28 0 29 0;
#X connect 28 0 37 0;
#X connect 28 0 38 0;
#X connect 29 0 1 0;
#X connect 30 0 31 0;
#X connect 31 0 34 0;
#X connect 32 0 33 0;
#X connect 33 0 35 0;
#X connect 34 0 36 0;
#X connect 34 0 43 0;
#X connect 35 0 42 0;
#X connect 36 0 2 0;
#X connect 37 0 30 0;
#X connect 38 0 32 0;
#X connect 39 0 2 0;
#X connect 39 1 40 0;
#X connect 41 0 39 0;
#X connect 42 0 41 0;
#X connect 43 0 41 0;
#X connect 44 0 0 0;
#X connect 45 0 20 0;
#X connect 46 0 13 0;
#X restore 192 80 pd sensor_enceinte_02_G;
#N canvas 36 222 425 517 sensor_enceinte_03_G 0;
#X floatatom 202 100 5 0 0 0 - - -;
#X floatatom 242 125 5 0 0 0 - - -;
#X obj 242 200 tgl 25 0 empty empty empty 17 7 0 10 -262144 -1 -1 1
1;
#X obj 242 145 >= 1;
#X obj 169 184 tgl 25 0 empty empty empty 17 7 0 10 -262144 -1 -1 0
1;
#X obj 202 120 >= 1;
#X obj 211 235 +;
#X floatatom 211 256 5 0 0 0 - - -;
#X obj 211 276 == 2;
#X obj 211 301 tgl 25 0 empty empty empty 17 7 0 10 -262144 -1 -1 0
1;
#X floatatom 211 357 5 0 0 0 - - -;
#X obj 211 336 change 0;
#X obj 211 377 sel 0 1;
#X floatatom 24 98 5 0 0 0 - - -;
#X obj 24 118 sel 1;
#X obj 169 160 gate 2;
#X obj 132 117 vradio 15 1 0 3 empty empty empty 0 -8 0 10 -232576
-1 -1 1;
#X msg 132 95 1;
#X msg 164 103 2;
#X obj 207 182 bng 15 250 50 0 empty empty empty 17 7 0 10 -261682
-1 -1;
#X floatatom 66 99 5 0 0 0 - - -;
#X obj 66 119 sel 1;
#X floatatom 24 139 5 0 0 0 - - -;
#X floatatom 66 140 5 0 0 0 - - -;
#X msg 25 158 0;
#X obj 211 456 outlet;
#X obj 230 437 outlet;
#X obj 202 39 inlet;
#X obj 242 39 inlet;
#X obj 242 104 < 266;
#X floatatom 317 96 5 0 0 0 - - -;
#X obj 317 116 sel 1;
#X floatatom 359 97 5 0 0 0 - - -;
#X obj 359 117 sel 1;
#X floatatom 317 137 5 0 0 0 - - -;
#X floatatom 359 138 5 0 0 0 - - -;
#X msg 317 156 0;
#X obj 317 75 < 34;
#X obj 359 76 > 34;
#X obj 242 175 gate 2;
#X obj 275 198 bng 15 250 50 0 empty empty empty 17 7 0 10 -261682
-1 -1;
#X obj 316 206 vradio 15 1 0 3 empty empty empty 0 -8 0 10 -204800
-1 -1 1;
#X msg 316 184 1;
#X msg 348 192 2;
#X obj 202 75 < 803;
#X obj 66 78 > 573;
#X obj 24 77 < 573;
#X connect 0 0 5 0;
#X connect 1 0 3 0;
#X connect 2 0 6 1;
#X connect 3 0 39 1;
#X connect 4 0 6 0;
#X connect 5 0 15 1;
#X connect 6 0 7 0;
#X connect 7 0 8 0;
#X connect 8 0 9 0;
#X connect 9 0 11 0;
#X connect 10 0 12 0;
#X connect 11 0 10 0;
#X connect 12 0 25 0;
#X connect 12 1 26 0;
#X connect 13 0 14 0;
#X connect 14 0 22 0;
#X connect 15 0 4 0;
#X connect 15 1 19 0;
#X connect 16 0 15 0;
#X connect 17 0 16 0;
#X connect 18 0 16 0;
#X connect 20 0 21 0;
#X connect 21 0 23 0;
#X connect 22 0 18 0;
#X connect 22 0 24 0;
#X connect 23 0 17 0;
#X connect 24 0 4 0;
#X connect 27 0 44 0;
#X connect 27 0 45 0;
#X connect 27 0 46 0;
#X connect 28 0 29 0;
#X connect 28 0 37 0;
#X connect 28 0 38 0;
#X connect 29 0 1 0;
#X connect 30 0 31 0;
#X connect 31 0 34 0;
#X connect 32 0 33 0;
#X connect 33 0 35 0;
#X connect 34 0 36 0;
#X connect 34 0 43 0;
#X connect 35 0 42 0;
#X connect 36 0 2 0;
#X connect 37 0 30 0;
#X connect 38 0 32 0;
#X connect 39 0 2 0;
#X connect 39 1 40 0;
#X connect 41 0 39 0;
#X connect 42 0 41 0;
#X connect 43 0 41 0;
#X connect 44 0 0 0;
#X connect 45 0 20 0;
#X connect 46 0 13 0;
#X restore 414 79 pd sensor_enceinte_03_G;
#N canvas 38 229 451 508 sensor_enceinte_04_G 0;
#X floatatom 212 91 5 0 0 0 - - -;
#X floatatom 252 116 5 0 0 0 - - -;
#X obj 252 191 tgl 25 0 empty empty empty 17 7 0 10 -262144 -1 -1 1
1;
#X obj 252 136 >= 1;
#X obj 179 175 tgl 25 0 empty empty empty 17 7 0 10 -262144 -1 -1 0
1;
#X obj 212 111 >= 1;
#X obj 221 226 +;
#X floatatom 221 247 5 0 0 0 - - -;
#X obj 221 267 == 2;
#X obj 221 292 tgl 25 0 empty empty empty 17 7 0 10 -262144 -1 -1 0
1;
#X floatatom 221 348 5 0 0 0 - - -;
#X obj 221 327 change 0;
#X obj 221 368 sel 0 1;
#X floatatom 34 89 5 0 0 0 - - -;
#X obj 34 109 sel 1;
#X obj 179 151 gate 2;
#X obj 142 108 vradio 15 1 0 3 empty empty empty 0 -8 0 10 -232576
-1 -1 2;
#X msg 142 86 1;
#X msg 174 94 2;
#X obj 217 173 bng 15 250 50 0 empty empty empty 17 7 0 10 -261682
-1 -1;
#X floatatom 76 90 5 0 0 0 - - -;
#X obj 76 110 sel 1;
#X floatatom 34 130 5 0 0 0 - - -;
#X floatatom 76 131 5 0 0 0 - - -;
#X msg 35 149 0;
#X obj 221 447 outlet;
#X obj 240 428 outlet;
#X obj 212 30 inlet;
#X obj 252 30 inlet;
#X obj 252 95 < 266;
#X floatatom 327 87 5 0 0 0 - - -;
#X obj 327 107 sel 1;
#X floatatom 369 88 5 0 0 0 - - -;
#X obj 369 108 sel 1;
#X floatatom 327 128 5 0 0 0 - - -;
#X floatatom 369 129 5 0 0 0 - - -;
#X msg 327 147 0;
#X obj 327 66 < 34;
#X obj 369 67 > 34;
#X obj 252 166 gate 2;
#X obj 285 189 bng 15 250 50 0 empty empty empty 17 7 0 10 -261682
-1 -1;
#X obj 326 197 vradio 15 1 0 3 empty empty empty 0 -8 0 10 -204800
-1 -1 1;
#X msg 326 175 1;
#X msg 358 183 2;
#X obj 34 68 > 1035;
#X obj 76 69 < 1035;
#X obj 212 66 > 803;
#X connect 0 0 5 0;
#X connect 1 0 3 0;
#X connect 2 0 6 1;
#X connect 3 0 39 1;
#X connect 4 0 6 0;
#X connect 5 0 15 1;
#X connect 6 0 7 0;
#X connect 7 0 8 0;
#X connect 8 0 9 0;
#X connect 9 0 11 0;
#X connect 10 0 12 0;
#X connect 11 0 10 0;
#X connect 12 0 25 0;
#X connect 12 1 26 0;
#X connect 13 0 14 0;
#X connect 14 0 22 0;
#X connect 15 0 4 0;
#X connect 15 1 19 0;
#X connect 16 0 15 0;
#X connect 17 0 16 0;
#X connect 18 0 16 0;
#X connect 20 0 21 0;
#X connect 21 0 23 0;
#X connect 22 0 18 0;
#X connect 22 0 24 0;
#X connect 23 0 17 0;
#X connect 24 0 4 0;
#X connect 27 0 44 0;
#X connect 27 0 45 0;
#X connect 27 0 46 0;
#X connect 28 0 29 0;
#X connect 28 0 37 0;
#X connect 28 0 38 0;
#X connect 29 0 1 0;
#X connect 30 0 31 0;
#X connect 31 0 34 0;
#X connect 32 0 33 0;
#X connect 33 0 35 0;
#X connect 34 0 36 0;
#X connect 34 0 43 0;
#X connect 35 0 42 0;
#X connect 36 0 2 0;
#X connect 37 0 30 0;
#X connect 38 0 32 0;
#X connect 39 0 2 0;
#X connect 39 1 40 0;
#X connect 41 0 39 0;
#X connect 42 0 41 0;
#X connect 43 0 41 0;
#X connect 44 0 13 0;
#X connect 45 0 20 0;
#X connect 46 0 0 0;
#X restore 613 75 pd sensor_enceinte_04_G;
#N canvas 129 22 452 497 sensor_enceinte_05_G 0;
#X floatatom 209 90 5 0 0 0 - - -;
#X floatatom 249 115 5 0 0 0 - - -;
#X obj 249 190 tgl 25 0 empty empty empty 17 7 0 10 -262144 -1 -1 0
1;
#X obj 249 135 >= 1;
#X obj 176 174 tgl 25 0 empty empty empty 17 7 0 10 -262144 -1 -1 0
1;
#X obj 209 110 >= 1;
#X obj 218 225 +;
#X floatatom 218 246 5 0 0 0 - - -;
#X obj 218 266 == 2;
#X obj 218 291 tgl 25 0 empty empty empty 17 7 0 10 -262144 -1 -1 0
1;
#X floatatom 218 347 5 0 0 0 - - -;
#X obj 218 326 change 0;
#X obj 218 367 sel 0 1;
#X floatatom 31 88 5 0 0 0 - - -;
#X obj 31 108 sel 1;
#X obj 176 150 gate 2;
#X obj 139 107 vradio 15 1 0 3 empty empty empty 0 -8 0 10 -232576
-1 -1 2;
#X msg 139 85 1;
#X msg 171 93 2;
#X obj 214 172 bng 15 250 50 0 empty empty empty 17 7 0 10 -261682
-1 -1;
#X floatatom 73 89 5 0 0 0 - - -;
#X obj 73 109 sel 1;
#X floatatom 31 129 5 0 0 0 - - -;
#X floatatom 73 130 5 0 0 0 - - -;
#X msg 32 148 0;
#X obj 218 446 outlet;
#X obj 237 427 outlet;
#X obj 209 29 inlet;
#X obj 249 29 inlet;
#X floatatom 324 86 5 0 0 0 - - -;
#X obj 324 106 sel 1;
#X floatatom 366 87 5 0 0 0 - - -;
#X obj 366 107 sel 1;
#X floatatom 324 127 5 0 0 0 - - -;
#X floatatom 366 128 5 0 0 0 - - -;
#X msg 324 146 0;
#X obj 249 165 gate 2;
#X obj 282 188 bng 15 250 50 0 empty empty empty 17 7 0 10 -261682
-1 -1;
#X obj 323 196 vradio 15 1 0 3 empty empty empty 0 -8 0 10 -204800
-1 -1 1;
#X msg 323 174 1;
#X msg 355 182 2;
#X obj 31 67 > 1035;
#X obj 73 68 < 1035;
#X obj 209 65 > 803;
#X obj 249 94 > 266;
#X obj 324 65 > 497;
#X obj 366 66 < 497;
#X connect 0 0 5 0;
#X connect 1 0 3 0;
#X connect 2 0 6 1;
#X connect 3 0 36 1;
#X connect 4 0 6 0;
#X connect 5 0 15 1;
#X connect 6 0 7 0;
#X connect 7 0 8 0;
#X connect 8 0 9 0;
#X connect 9 0 11 0;
#X connect 10 0 12 0;
#X connect 11 0 10 0;
#X connect 12 0 25 0;
#X connect 12 1 26 0;
#X connect 13 0 14 0;
#X connect 14 0 22 0;
#X connect 15 0 4 0;
#X connect 15 1 19 0;
#X connect 16 0 15 0;
#X connect 17 0 16 0;
#X connect 18 0 16 0;
#X connect 20 0 21 0;
#X connect 21 0 23 0;
#X connect 22 0 18 0;
#X connect 22 0 24 0;
#X connect 23 0 17 0;
#X connect 24 0 4 0;
#X connect 27 0 41 0;
#X connect 27 0 42 0;
#X connect 27 0 43 0;
#X connect 28 0 44 0;
#X connect 28 0 45 0;
#X connect 28 0 46 0;
#X connect 29 0 30 0;
#X connect 30 0 33 0;
#X connect 31 0 32 0;
#X connect 32 0 34 0;
#X connect 33 0 35 0;
#X connect 33 0 40 0;
#X connect 34 0 39 0;
#X connect 35 0 2 0;
#X connect 36 0 2 0;
#X connect 36 1 37 0;
#X connect 38 0 36 0;
#X connect 39 0 38 0;
#X connect 40 0 38 0;
#X connect 41 0 13 0;
#X connect 42 0 20 0;
#X connect 43 0 0 0;
#X connect 44 0 1 0;
#X connect 45 0 29 0;
#X connect 46 0 31 0;
#X restore 616 327 pd sensor_enceinte_05_G;
#N canvas 209 176 429 493 sensor_enceinte_06_G 0;
#X floatatom 200 84 5 0 0 0 - - -;
#X floatatom 240 109 5 0 0 0 - - -;
#X obj 240 184 tgl 25 0 empty empty empty 17 7 0 10 -262144 -1 -1 0
1;
#X obj 240 129 >= 1;
#X obj 167 168 tgl 25 0 empty empty empty 17 7 0 10 -262144 -1 -1 0
1;
#X obj 200 104 >= 1;
#X obj 209 219 +;
#X floatatom 209 240 5 0 0 0 - - -;
#X obj 209 260 == 2;
#X obj 209 285 tgl 25 0 empty empty empty 17 7 0 10 -262144 -1 -1 0
1;
#X floatatom 209 341 5 0 0 0 - - -;
#X obj 209 320 change 0;
#X obj 209 361 sel 0 1;
#X floatatom 22 82 5 0 0 0 - - -;
#X obj 22 102 sel 1;
#X obj 167 144 gate 2;
#X obj 130 101 vradio 15 1 0 3 empty empty empty 0 -8 0 10 -232576
-1 -1 1;
#X msg 130 79 1;
#X msg 162 87 2;
#X obj 205 166 bng 15 250 50 0 empty empty empty 17 7 0 10 -261682
-1 -1;
#X floatatom 64 83 5 0 0 0 - - -;
#X obj 64 103 sel 1;
#X floatatom 22 123 5 0 0 0 - - -;
#X floatatom 64 124 5 0 0 0 - - -;
#X msg 23 142 0;
#X obj 209 440 outlet;
#X obj 228 421 outlet;
#X obj 200 23 inlet;
#X obj 240 23 inlet;
#X floatatom 315 80 5 0 0 0 - - -;
#X obj 315 100 sel 1;
#X floatatom 357 81 5 0 0 0 - - -;
#X obj 357 101 sel 1;
#X floatatom 315 121 5 0 0 0 - - -;
#X floatatom 357 122 5 0 0 0 - - -;
#X msg 315 140 0;
#X obj 240 159 gate 2;
#X obj 273 182 bng 15 250 50 0 empty empty empty 17 7 0 10 -261682
-1 -1;
#X obj 314 190 vradio 15 1 0 3 empty empty empty 0 -8 0 10 -204800
-1 -1 1;
#X msg 314 168 1;
#X msg 346 176 2;
#X obj 240 88 > 266;
#X obj 315 59 > 497;
#X obj 357 60 < 497;
#X obj 200 59 < 803;
#X obj 22 61 < 573;
#X obj 64 62 > 573;
#X connect 0 0 5 0;
#X connect 1 0 3 0;
#X connect 2 0 6 1;
#X connect 3 0 36 1;
#X connect 4 0 6 0;
#X connect 5 0 15 1;
#X connect 6 0 7 0;
#X connect 7 0 8 0;
#X connect 8 0 9 0;
#X connect 9 0 11 0;
#X connect 10 0 12 0;
#X connect 11 0 10 0;
#X connect 12 0 25 0;
#X connect 12 1 26 0;
#X connect 13 0 14 0;
#X connect 14 0 22 0;
#X connect 15 0 4 0;
#X connect 15 1 19 0;
#X connect 16 0 15 0;
#X connect 17 0 16 0;
#X connect 18 0 16 0;
#X connect 20 0 21 0;
#X connect 21 0 23 0;
#X connect 22 0 18 0;
#X connect 22 0 24 0;
#X connect 23 0 17 0;
#X connect 24 0 4 0;
#X connect 27 0 44 0;
#X connect 27 0 45 0;
#X connect 27 0 46 0;
#X connect 28 0 41 0;
#X connect 28 0 42 0;
#X connect 28 0 43 0;
#X connect 29 0 30 0;
#X connect 30 0 33 0;
#X connect 31 0 32 0;
#X connect 32 0 34 0;
#X connect 33 0 35 0;
#X connect 33 0 40 0;
#X connect 34 0 39 0;
#X connect 35 0 2 0;
#X connect 36 0 2 0;
#X connect 36 1 37 0;
#X connect 38 0 36 0;
#X connect 39 0 38 0;
#X connect 40 0 38 0;
#X connect 41 0 1 0;
#X connect 42 0 29 0;
#X connect 43 0 31 0;
#X connect 44 0 0 0;
#X connect 45 0 13 0;
#X connect 46 0 20 0;
#X restore 427 330 pd sensor_enceinte_06_G;
#N canvas 0 93 462 490 sensor_enceinte_07_G 0;
#X floatatom 213 86 5 0 0 0 - - -;
#X floatatom 253 111 5 0 0 0 - - -;
#X obj 253 186 tgl 25 0 empty empty empty 17 7 0 10 -262144 -1 -1 0
1;
#X obj 253 131 >= 1;
#X obj 180 170 tgl 25 0 empty empty empty 17 7 0 10 -262144 -1 -1 0
1;
#X obj 213 106 >= 1;
#X obj 222 221 +;
#X floatatom 222 242 5 0 0 0 - - -;
#X obj 222 262 == 2;
#X obj 222 287 tgl 25 0 empty empty empty 17 7 0 10 -262144 -1 -1 0
1;
#X floatatom 222 343 5 0 0 0 - - -;
#X obj 222 322 change 0;
#X obj 222 363 sel 0 1;
#X floatatom 35 84 5 0 0 0 - - -;
#X obj 35 104 sel 1;
#X obj 180 146 gate 2;
#X obj 143 103 vradio 15 1 0 3 empty empty empty 0 -8 0 10 -232576
-1 -1 1;
#X msg 143 81 1;
#X msg 175 89 2;
#X obj 218 168 bng 15 250 50 0 empty empty empty 17 7 0 10 -261682
-1 -1;
#X floatatom 77 85 5 0 0 0 - - -;
#X obj 77 105 sel 1;
#X floatatom 35 125 5 0 0 0 - - -;
#X floatatom 77 126 5 0 0 0 - - -;
#X msg 36 144 0;
#X obj 222 442 outlet;
#X obj 241 423 outlet;
#X obj 213 25 inlet;
#X obj 253 25 inlet;
#X floatatom 328 82 5 0 0 0 - - -;
#X obj 328 102 sel 1;
#X floatatom 370 83 5 0 0 0 - - -;
#X obj 370 103 sel 1;
#X floatatom 328 123 5 0 0 0 - - -;
#X floatatom 370 124 5 0 0 0 - - -;
#X msg 328 142 0;
#X obj 253 161 gate 2;
#X obj 286 184 bng 15 250 50 0 empty empty empty 17 7 0 10 -261682
-1 -1;
#X obj 327 192 vradio 15 1 0 3 empty empty empty 0 -8 0 10 -204800
-1 -1 1;
#X msg 327 170 1;
#X msg 359 178 2;
#X obj 253 90 > 266;
#X obj 328 61 > 497;
#X obj 370 62 < 497;
#X obj 213 61 < 573;
#X obj 77 64 > 342;
#X obj 35 63 < 342;
#X connect 0 0 5 0;
#X connect 1 0 3 0;
#X connect 2 0 6 1;
#X connect 3 0 36 1;
#X connect 4 0 6 0;
#X connect 5 0 15 1;
#X connect 6 0 7 0;
#X connect 7 0 8 0;
#X connect 8 0 9 0;
#X connect 9 0 11 0;
#X connect 10 0 12 0;
#X connect 11 0 10 0;
#X connect 12 0 25 0;
#X connect 12 1 26 0;
#X connect 13 0 14 0;
#X connect 14 0 22 0;
#X connect 15 0 4 0;
#X connect 15 1 19 0;
#X connect 16 0 15 0;
#X connect 17 0 16 0;
#X connect 18 0 16 0;
#X connect 20 0 21 0;
#X connect 21 0 23 0;
#X connect 22 0 18 0;
#X connect 22 0 24 0;
#X connect 23 0 17 0;
#X connect 24 0 4 0;
#X connect 27 0 44 0;
#X connect 27 0 45 0;
#X connect 27 0 46 0;
#X connect 28 0 41 0;
#X connect 28 0 42 0;
#X connect 28 0 43 0;
#X connect 29 0 30 0;
#X connect 30 0 33 0;
#X connect 31 0 32 0;
#X connect 32 0 34 0;
#X connect 33 0 35 0;
#X connect 33 0 40 0;
#X connect 34 0 39 0;
#X connect 35 0 2 0;
#X connect 36 0 2 0;
#X connect 36 1 37 0;
#X connect 38 0 36 0;
#X connect 39 0 38 0;
#X connect 40 0 38 0;
#X connect 41 0 1 0;
#X connect 42 0 29 0;
#X connect 43 0 31 0;
#X connect 44 0 0 0;
#X connect 45 0 20 0;
#X connect 46 0 13 0;
#X restore 225 331 pd sensor_enceinte_07_G;
#N canvas 698 22 454 486 sensor_enceinte_08_G 0;
#X floatatom 208 86 5 0 0 0 - - -;
#X floatatom 248 111 5 0 0 0 - - -;
#X obj 248 186 tgl 25 0 empty empty empty 17 7 0 10 -262144 -1 -1 0
1;
#X obj 248 131 >= 1;
#X obj 175 170 tgl 25 0 empty empty empty 17 7 0 10 -262144 -1 -1 0
1;
#X obj 208 106 >= 1;
#X obj 217 221 +;
#X floatatom 217 242 5 0 0 0 - - -;
#X obj 217 262 == 2;
#X obj 217 287 tgl 25 0 empty empty empty 17 7 0 10 -262144 -1 -1 0
1;
#X floatatom 217 343 5 0 0 0 - - -;
#X obj 217 322 change 0;
#X obj 217 363 sel 0 1;
#X floatatom 30 84 5 0 0 0 - - -;
#X obj 30 104 sel 1;
#X obj 175 146 gate 2;
#X obj 138 103 vradio 15 1 0 3 empty empty empty 0 -8 0 10 -232576
-1 -1 2;
#X msg 138 81 1;
#X msg 170 89 2;
#X obj 213 168 bng 15 250 50 0 empty empty empty 17 7 0 10 -261682
-1 -1;
#X floatatom 72 85 5 0 0 0 - - -;
#X obj 72 105 sel 1;
#X floatatom 30 125 5 0 0 0 - - -;
#X floatatom 72 126 5 0 0 0 - - -;
#X msg 31 144 0;
#X obj 217 442 outlet;
#X obj 236 423 outlet;
#X obj 208 25 inlet;
#X obj 248 25 inlet;
#X floatatom 323 82 5 0 0 0 - - -;
#X obj 323 102 sel 1;
#X floatatom 365 83 5 0 0 0 - - -;
#X obj 365 103 sel 1;
#X floatatom 323 123 5 0 0 0 - - -;
#X floatatom 365 124 5 0 0 0 - - -;
#X msg 323 142 0;
#X obj 248 161 gate 2;
#X obj 281 184 bng 15 250 50 0 empty empty empty 17 7 0 10 -261682
-1 -1;
#X obj 322 192 vradio 15 1 0 3 empty empty empty 0 -8 0 10 -204800
-1 -1 1;
#X msg 322 170 1;
#X msg 354 178 2;
#X obj 248 90 > 266;
#X obj 323 61 > 497;
#X obj 365 62 < 497;
#X obj 72 64 < 342;
#X obj 30 63 > 342;
#X obj 208 61 > 110;
#X connect 0 0 5 0;
#X connect 1 0 3 0;
#X connect 2 0 6 1;
#X connect 3 0 36 1;
#X connect 4 0 6 0;
#X connect 5 0 15 1;
#X connect 6 0 7 0;
#X connect 7 0 8 0;
#X connect 8 0 9 0;
#X connect 9 0 11 0;
#X connect 10 0 12 0;
#X connect 11 0 10 0;
#X connect 12 0 25 0;
#X connect 12 1 26 0;
#X connect 13 0 14 0;
#X connect 14 0 22 0;
#X connect 15 0 4 0;
#X connect 15 1 19 0;
#X connect 16 0 15 0;
#X connect 17 0 16 0;
#X connect 18 0 16 0;
#X connect 20 0 21 0;
#X connect 21 0 23 0;
#X connect 22 0 18 0;
#X connect 22 0 24 0;
#X connect 23 0 17 0;
#X connect 24 0 4 0;
#X connect 27 0 44 0;
#X connect 27 0 45 0;
#X connect 27 0 46 0;
#X connect 28 0 41 0;
#X connect 28 0 42 0;
#X connect 28 0 43 0;
#X connect 29 0 30 0;
#X connect 30 0 33 0;
#X connect 31 0 32 0;
#X connect 32 0 34 0;
#X connect 33 0 35 0;
#X connect 33 0 40 0;
#X connect 34 0 39 0;
#X connect 35 0 2 0;
#X connect 36 0 2 0;
#X connect 36 1 37 0;
#X connect 38 0 36 0;
#X connect 39 0 38 0;
#X connect 40 0 38 0;
#X connect 41 0 1 0;
#X connect 42 0 29 0;
#X connect 43 0 31 0;
#X connect 44 0 20 0;
#X connect 45 0 13 0;
#X connect 46 0 0 0;
#X restore 22 330 pd sensor_enceinte_08_G;
#N canvas 63 261 408 517 sensor_enceinte_01_M 0;
#X floatatom 188 92 5 0 0 0 - - -;
#X floatatom 228 117 5 0 0 0 - - -;
#X obj 228 192 tgl 25 0 empty empty empty 17 7 0 10 -262144 -1 -1 1
1;
#X obj 228 137 >= 1;
#X obj 155 176 tgl 25 0 empty empty empty 17 7 0 10 -262144 -1 -1 0
1;
#X obj 188 112 >= 1;
#X obj 197 227 +;
#X floatatom 197 248 5 0 0 0 - - -;
#X obj 197 268 == 2;
#X obj 197 293 tgl 25 0 empty empty empty 17 7 0 10 -262144 -1 -1 0
1;
#X floatatom 197 349 5 0 0 0 - - -;
#X obj 197 328 change 0;
#X obj 197 369 sel 0 1;
#X floatatom 10 90 5 0 0 0 - - -;
#X obj 10 110 sel 1;
#X obj 155 152 gate 2;
#X obj 118 109 vradio 15 1 0 3 empty empty empty 0 -8 0 10 -232576
-1 -1 1;
#X msg 118 87 1;
#X msg 150 95 2;
#X obj 193 174 bng 15 250 50 0 empty empty empty 17 7 0 10 -261682
-1 -1;
#X floatatom 52 91 5 0 0 0 - - -;
#X obj 52 111 sel 1;
#X floatatom 10 131 5 0 0 0 - - -;
#X floatatom 52 132 5 0 0 0 - - -;
#X msg 11 150 0;
#X obj 197 448 outlet;
#X obj 216 429 outlet;
#X obj 188 31 inlet;
#X obj 228 31 inlet;
#X floatatom 303 88 5 0 0 0 - - -;
#X obj 303 108 sel 1;
#X floatatom 345 89 5 0 0 0 - - -;
#X obj 345 109 sel 1;
#X floatatom 303 129 5 0 0 0 - - -;
#X floatatom 345 130 5 0 0 0 - - -;
#X msg 303 148 0;
#X obj 228 167 gate 2;
#X obj 261 190 bng 15 250 50 0 empty empty empty 17 7 0 10 -261682
-1 -1;
#X obj 302 198 vradio 15 1 0 3 empty empty empty 0 -8 0 10 -204800
-1 -1 1;
#X msg 302 176 1;
#X msg 334 184 2;
#X obj 188 67 < 303;
#X obj 52 70 > 150;
#X obj 10 69 < 150;
#X obj 303 67 < 73;
#X obj 345 68 > 73;
#X obj 228 96 < 224;
#X connect 0 0 5 0;
#X connect 1 0 3 0;
#X connect 2 0 6 1;
#X connect 3 0 36 1;
#X connect 4 0 6 0;
#X connect 5 0 15 1;
#X connect 6 0 7 0;
#X connect 7 0 8 0;
#X connect 8 0 9 0;
#X connect 9 0 11 0;
#X connect 10 0 12 0;
#X connect 11 0 10 0;
#X connect 12 0 25 0;
#X connect 12 1 26 0;
#X connect 13 0 14 0;
#X connect 14 0 22 0;
#X connect 15 0 4 0;
#X connect 15 1 19 0;
#X connect 16 0 15 0;
#X connect 17 0 16 0;
#X connect 18 0 16 0;
#X connect 20 0 21 0;
#X connect 21 0 23 0;
#X connect 22 0 18 0;
#X connect 22 0 24 0;
#X connect 23 0 17 0;
#X connect 24 0 4 0;
#X connect 27 0 41 0;
#X connect 27 0 42 0;
#X connect 27 0 43 0;
#X connect 28 0 45 0;
#X connect 28 0 44 0;
#X connect 28 0 46 0;
#X connect 29 0 30 0;
#X connect 30 0 33 0;
#X connect 31 0 32 0;
#X connect 32 0 34 0;
#X connect 33 0 35 0;
#X connect 33 0 40 0;
#X connect 34 0 39 0;
#X connect 35 0 2 0;
#X connect 36 0 2 0;
#X connect 36 1 37 0;
#X connect 38 0 36 0;
#X connect 39 0 38 0;
#X connect 40 0 38 0;
#X connect 41 0 0 0;
#X connect 42 0 20 0;
#X connect 43 0 13 0;
#X connect 44 0 29 0;
#X connect 45 0 31 0;
#X connect 46 0 1 0;
#X restore 23 585 pd sensor_enceinte_01_M;
#N canvas 786 126 429 496 sensor_enceinte_02_M 0;
#X floatatom 209 92 5 0 0 0 - - -;
#X floatatom 249 117 5 0 0 0 - - -;
#X obj 249 192 tgl 25 0 empty empty empty 17 7 0 10 -262144 -1 -1 1
1;
#X obj 249 137 >= 1;
#X obj 176 176 tgl 25 0 empty empty empty 17 7 0 10 -262144 -1 -1 0
1;
#X obj 209 112 >= 1;
#X obj 218 227 +;
#X floatatom 218 248 5 0 0 0 - - -;
#X obj 218 268 == 2;
#X obj 218 293 tgl 25 0 empty empty empty 17 7 0 10 -262144 -1 -1 0
1;
#X floatatom 218 349 5 0 0 0 - - -;
#X obj 218 328 change 0;
#X obj 218 369 sel 0 1;
#X floatatom 31 90 5 0 0 0 - - -;
#X obj 31 110 sel 1;
#X obj 176 152 gate 2;
#X obj 139 109 vradio 15 1 0 3 empty empty empty 0 -8 0 10 -232576
-1 -1 1;
#X msg 139 87 1;
#X msg 171 95 2;
#X obj 214 174 bng 15 250 50 0 empty empty empty 17 7 0 10 -261682
-1 -1;
#X floatatom 73 91 5 0 0 0 - - -;
#X obj 73 111 sel 1;
#X floatatom 31 131 5 0 0 0 - - -;
#X floatatom 73 132 5 0 0 0 - - -;
#X msg 32 150 0;
#X obj 218 448 outlet;
#X obj 237 429 outlet;
#X obj 209 31 inlet;
#X obj 249 31 inlet;
#X floatatom 324 88 5 0 0 0 - - -;
#X obj 324 108 sel 1;
#X floatatom 366 89 5 0 0 0 - - -;
#X obj 366 109 sel 1;
#X floatatom 324 129 5 0 0 0 - - -;
#X floatatom 366 130 5 0 0 0 - - -;
#X msg 324 148 0;
#X obj 249 167 gate 2;
#X obj 282 190 bng 15 250 50 0 empty empty empty 17 7 0 10 -261682
-1 -1;
#X obj 323 198 vradio 15 1 0 3 empty empty empty 0 -8 0 10 -204800
-1 -1 1;
#X msg 323 176 1;
#X msg 355 184 2;
#X obj 209 67 < 533;
#X obj 73 70 > 382;
#X obj 31 69 < 382;
#X obj 324 67 < 73;
#X obj 366 68 > 73;
#X obj 249 96 < 224;
#X connect 0 0 5 0;
#X connect 1 0 3 0;
#X connect 2 0 6 1;
#X connect 3 0 36 1;
#X connect 4 0 6 0;
#X connect 5 0 15 1;
#X connect 6 0 7 0;
#X connect 7 0 8 0;
#X connect 8 0 9 0;
#X connect 9 0 11 0;
#X connect 10 0 12 0;
#X connect 11 0 10 0;
#X connect 12 0 25 0;
#X connect 12 1 26 0;
#X connect 13 0 14 0;
#X connect 14 0 22 0;
#X connect 15 0 4 0;
#X connect 15 1 19 0;
#X connect 16 0 15 0;
#X connect 17 0 16 0;
#X connect 18 0 16 0;
#X connect 20 0 21 0;
#X connect 21 0 23 0;
#X connect 22 0 18 0;
#X connect 22 0 24 0;
#X connect 23 0 17 0;
#X connect 24 0 4 0;
#X connect 27 0 41 0;
#X connect 27 0 42 0;
#X connect 27 0 43 0;
#X connect 28 0 46 0;
#X connect 28 0 45 0;
#X connect 28 0 44 0;
#X connect 29 0 30 0;
#X connect 30 0 33 0;
#X connect 31 0 32 0;
#X connect 32 0 34 0;
#X connect 33 0 35 0;
#X connect 33 0 40 0;
#X connect 34 0 39 0;
#X connect 35 0 2 0;
#X connect 36 0 2 0;
#X connect 36 1 37 0;
#X connect 38 0 36 0;
#X connect 39 0 38 0;
#X connect 40 0 38 0;
#X connect 41 0 0 0;
#X connect 42 0 20 0;
#X connect 43 0 13 0;
#X connect 44 0 29 0;
#X connect 45 0 31 0;
#X connect 46 0 1 0;
#X restore 193 585 pd sensor_enceinte_02_M;
#N canvas 120 261 425 517 sensor_enceinte_03_M 0;
#X floatatom 202 100 5 0 0 0 - - -;
#X floatatom 242 125 5 0 0 0 - - -;
#X obj 242 200 tgl 25 0 empty empty empty 17 7 0 10 -262144 -1 -1 1
1;
#X obj 242 145 >= 1;
#X obj 169 184 tgl 25 0 empty empty empty 17 7 0 10 -262144 -1 -1 0
1;
#X obj 202 120 >= 1;
#X obj 211 235 +;
#X floatatom 211 256 5 0 0 0 - - -;
#X obj 211 276 == 2;
#X obj 211 301 tgl 25 0 empty empty empty 17 7 0 10 -262144 -1 -1 0
1;
#X floatatom 211 357 5 0 0 0 - - -;
#X obj 211 336 change 0;
#X obj 211 377 sel 0 1;
#X floatatom 24 98 5 0 0 0 - - -;
#X obj 24 118 sel 1;
#X obj 169 160 gate 2;
#X obj 132 117 vradio 15 1 0 3 empty empty empty 0 -8 0 10 -232576
-1 -1 1;
#X msg 132 95 1;
#X msg 164 103 2;
#X obj 207 182 bng 15 250 50 0 empty empty empty 17 7 0 10 -261682
-1 -1;
#X floatatom 66 99 5 0 0 0 - - -;
#X obj 66 119 sel 1;
#X floatatom 24 139 5 0 0 0 - - -;
#X floatatom 66 140 5 0 0 0 - - -;
#X msg 25 158 0;
#X obj 211 456 outlet;
#X obj 230 437 outlet;
#X obj 202 39 inlet;
#X obj 242 39 inlet;
#X floatatom 317 96 5 0 0 0 - - -;
#X obj 317 116 sel 1;
#X floatatom 359 97 5 0 0 0 - - -;
#X obj 359 117 sel 1;
#X floatatom 317 137 5 0 0 0 - - -;
#X floatatom 359 138 5 0 0 0 - - -;
#X msg 317 156 0;
#X obj 242 175 gate 2;
#X obj 275 198 bng 15 250 50 0 empty empty empty 17 7 0 10 -261682
-1 -1;
#X obj 316 206 vradio 15 1 0 3 empty empty empty 0 -8 0 10 -204800
-1 -1 1;
#X msg 316 184 1;
#X msg 348 192 2;
#X obj 202 75 < 764;
#X obj 66 78 > 613;
#X obj 24 77 < 613;
#X obj 242 104 < 224;
#X obj 317 75 < 73;
#X obj 359 76 > 73;
#X connect 0 0 5 0;
#X connect 1 0 3 0;
#X connect 2 0 6 1;
#X connect 3 0 36 1;
#X connect 4 0 6 0;
#X connect 5 0 15 1;
#X connect 6 0 7 0;
#X connect 7 0 8 0;
#X connect 8 0 9 0;
#X connect 9 0 11 0;
#X connect 10 0 12 0;
#X connect 11 0 10 0;
#X connect 12 0 25 0;
#X connect 12 1 26 0;
#X connect 13 0 14 0;
#X connect 14 0 22 0;
#X connect 15 0 4 0;
#X connect 15 1 19 0;
#X connect 16 0 15 0;
#X connect 17 0 16 0;
#X connect 18 0 16 0;
#X connect 20 0 21 0;
#X connect 21 0 23 0;
#X connect 22 0 18 0;
#X connect 22 0 24 0;
#X connect 23 0 17 0;
#X connect 24 0 4 0;
#X connect 27 0 41 0;
#X connect 27 0 42 0;
#X connect 27 0 43 0;
#X connect 28 0 44 0;
#X connect 28 0 45 0;
#X connect 28 0 46 0;
#X connect 29 0 30 0;
#X connect 30 0 33 0;
#X connect 31 0 32 0;
#X connect 32 0 34 0;
#X connect 33 0 35 0;
#X connect 33 0 40 0;
#X connect 34 0 39 0;
#X connect 35 0 2 0;
#X connect 36 0 2 0;
#X connect 36 1 37 0;
#X connect 38 0 36 0;
#X connect 39 0 38 0;
#X connect 40 0 38 0;
#X connect 41 0 0 0;
#X connect 42 0 20 0;
#X connect 43 0 13 0;
#X connect 44 0 1 0;
#X connect 45 0 29 0;
#X connect 46 0 31 0;
#X restore 415 584 pd sensor_enceinte_03_M;
#N canvas 495 270 451 508 sensor_enceinte_04_M 0;
#X floatatom 212 91 5 0 0 0 - - -;
#X floatatom 252 116 5 0 0 0 - - -;
#X obj 252 191 tgl 25 0 empty empty empty 17 7 0 10 -262144 -1 -1 1
1;
#X obj 252 136 >= 1;
#X obj 179 175 tgl 25 0 empty empty empty 17 7 0 10 -262144 -1 -1 0
1;
#X obj 212 111 >= 1;
#X obj 221 226 +;
#X floatatom 221 247 5 0 0 0 - - -;
#X obj 221 267 == 2;
#X obj 221 292 tgl 25 0 empty empty empty 17 7 0 10 -262144 -1 -1 0
1;
#X floatatom 221 348 5 0 0 0 - - -;
#X obj 221 327 change 0;
#X obj 221 368 sel 0 1;
#X floatatom 34 89 5 0 0 0 - - -;
#X obj 34 109 sel 1;
#X obj 179 151 gate 2;
#X obj 142 108 vradio 15 1 0 3 empty empty empty 0 -8 0 10 -232576
-1 -1 1;
#X msg 142 86 1;
#X msg 174 94 2;
#X obj 217 173 bng 15 250 50 0 empty empty empty 17 7 0 10 -261682
-1 -1;
#X floatatom 76 90 5 0 0 0 - - -;
#X obj 76 110 sel 1;
#X floatatom 34 130 5 0 0 0 - - -;
#X floatatom 76 131 5 0 0 0 - - -;
#X msg 35 149 0;
#X obj 221 447 outlet;
#X obj 240 428 outlet;
#X obj 212 30 inlet;
#X obj 252 30 inlet;
#X floatatom 327 87 5 0 0 0 - - -;
#X obj 327 107 sel 1;
#X floatatom 369 88 5 0 0 0 - - -;
#X obj 369 108 sel 1;
#X floatatom 327 128 5 0 0 0 - - -;
#X floatatom 369 129 5 0 0 0 - - -;
#X msg 327 147 0;
#X obj 252 166 gate 2;
#X obj 285 189 bng 15 250 50 0 empty empty empty 17 7 0 10 -261682
-1 -1;
#X obj 326 197 vradio 15 1 0 3 empty empty empty 0 -8 0 10 -204800
-1 -1 1;
#X msg 326 175 1;
#X msg 358 183 2;
#X obj 369 67 > 73;
#X obj 327 66 < 73;
#X obj 252 95 < 224;
#X obj 212 66 < 994;
#X obj 76 69 > 843;
#X obj 34 68 < 843;
#X connect 0 0 5 0;
#X connect 1 0 3 0;
#X connect 2 0 6 1;
#X connect 3 0 36 1;
#X connect 4 0 6 0;
#X connect 5 0 15 1;
#X connect 6 0 7 0;
#X connect 7 0 8 0;
#X connect 8 0 9 0;
#X connect 9 0 11 0;
#X connect 10 0 12 0;
#X connect 11 0 10 0;
#X connect 12 0 25 0;
#X connect 12 1 26 0;
#X connect 13 0 14 0;
#X connect 14 0 22 0;
#X connect 15 0 4 0;
#X connect 15 1 19 0;
#X connect 16 0 15 0;
#X connect 17 0 16 0;
#X connect 18 0 16 0;
#X connect 20 0 21 0;
#X connect 21 0 23 0;
#X connect 22 0 18 0;
#X connect 22 0 24 0;
#X connect 23 0 17 0;
#X connect 24 0 4 0;
#X connect 27 0 44 0;
#X connect 27 0 45 0;
#X connect 27 0 46 0;
#X connect 28 0 41 0;
#X connect 28 0 42 0;
#X connect 28 0 43 0;
#X connect 29 0 30 0;
#X connect 30 0 33 0;
#X connect 31 0 32 0;
#X connect 32 0 34 0;
#X connect 33 0 35 0;
#X connect 33 0 40 0;
#X connect 34 0 39 0;
#X connect 35 0 2 0;
#X connect 36 0 2 0;
#X connect 36 1 37 0;
#X connect 38 0 36 0;
#X connect 39 0 38 0;
#X connect 40 0 38 0;
#X connect 41 0 31 0;
#X connect 42 0 29 0;
#X connect 43 0 1 0;
#X connect 44 0 0 0;
#X connect 45 0 20 0;
#X connect 46 0 13 0;
#X restore 614 580 pd sensor_enceinte_04_M;
#N canvas 0 26 452 497 sensor_enceinte_05_M 0;
#X floatatom 209 90 5 0 0 0 - - -;
#X floatatom 249 115 5 0 0 0 - - -;
#X obj 249 190 tgl 25 0 empty empty empty 17 7 0 10 -262144 -1 -1 0
1;
#X obj 249 135 >= 1;
#X obj 176 174 tgl 25 0 empty empty empty 17 7 0 10 -262144 -1 -1 0
1;
#X obj 209 110 >= 1;
#X obj 218 225 +;
#X floatatom 218 246 5 0 0 0 - - -;
#X obj 218 266 == 2;
#X obj 218 291 tgl 25 0 empty empty empty 17 7 0 10 -262144 -1 -1 0
1;
#X floatatom 218 347 5 0 0 0 - - -;
#X obj 218 326 change 0;
#X obj 218 367 sel 0 1;
#X floatatom 31 88 5 0 0 0 - - -;
#X obj 31 108 sel 1;
#X obj 176 150 gate 2;
#X obj 139 107 vradio 15 1 0 3 empty empty empty 0 -8 0 10 -232576
-1 -1 1;
#X msg 139 85 1;
#X msg 171 93 2;
#X obj 214 172 bng 15 250 50 0 empty empty empty 17 7 0 10 -261682
-1 -1;
#X floatatom 73 89 5 0 0 0 - - -;
#X obj 73 109 sel 1;
#X floatatom 31 129 5 0 0 0 - - -;
#X floatatom 73 130 5 0 0 0 - - -;
#X msg 32 148 0;
#X obj 218 446 outlet;
#X obj 237 427 outlet;
#X obj 209 29 inlet;
#X obj 249 29 inlet;
#X floatatom 324 86 5 0 0 0 - - -;
#X obj 324 106 sel 1;
#X floatatom 366 87 5 0 0 0 - - -;
#X obj 366 107 sel 1;
#X floatatom 324 127 5 0 0 0 - - -;
#X floatatom 366 128 5 0 0 0 - - -;
#X msg 324 146 0;
#X obj 249 165 gate 2;
#X obj 282 188 bng 15 250 50 0 empty empty empty 17 7 0 10 -261682
-1 -1;
#X obj 323 196 vradio 15 1 0 3 empty empty empty 0 -8 0 10 -204800
-1 -1 2;
#X msg 323 174 1;
#X msg 355 182 2;
#X obj 73 68 > 843;
#X obj 31 67 < 843;
#X obj 209 65 < 994;
#X obj 324 65 < 307;
#X obj 366 66 > 307;
#X obj 249 94 < 455;
#X connect 0 0 5 0;
#X connect 1 0 3 0;
#X connect 2 0 6 1;
#X connect 3 0 36 1;
#X connect 4 0 6 0;
#X connect 5 0 15 1;
#X connect 6 0 7 0;
#X connect 7 0 8 0;
#X connect 8 0 9 0;
#X connect 9 0 11 0;
#X connect 10 0 12 0;
#X connect 11 0 10 0;
#X connect 12 0 25 0;
#X connect 12 1 26 0;
#X connect 13 0 14 0;
#X connect 14 0 22 0;
#X connect 15 0 4 0;
#X connect 15 1 19 0;
#X connect 16 0 15 0;
#X connect 17 0 16 0;
#X connect 18 0 16 0;
#X connect 20 0 21 0;
#X connect 21 0 23 0;
#X connect 22 0 18 0;
#X connect 22 0 24 0;
#X connect 23 0 17 0;
#X connect 24 0 4 0;
#X connect 27 0 41 0;
#X connect 27 0 42 0;
#X connect 27 0 43 0;
#X connect 28 0 44 0;
#X connect 28 0 45 0;
#X connect 28 0 46 0;
#X connect 29 0 30 0;
#X connect 30 0 33 0;
#X connect 31 0 32 0;
#X connect 32 0 34 0;
#X connect 33 0 35 0;
#X connect 33 0 40 0;
#X connect 34 0 39 0;
#X connect 35 0 2 0;
#X connect 36 0 2 0;
#X connect 36 1 37 0;
#X connect 38 0 36 0;
#X connect 39 0 38 0;
#X connect 40 0 38 0;
#X connect 41 0 20 0;
#X connect 42 0 13 0;
#X connect 43 0 0 0;
#X connect 44 0 29 0;
#X connect 45 0 31 0;
#X connect 46 0 1 0;
#X restore 619 810 pd sensor_enceinte_05_M;
#N canvas 199 121 429 493 sensor_enceinte_06_M 0;
#X floatatom 200 84 5 0 0 0 - - -;
#X floatatom 240 109 5 0 0 0 - - -;
#X obj 240 184 tgl 25 0 empty empty empty 17 7 0 10 -262144 -1 -1 0
1;
#X obj 240 129 >= 1;
#X obj 167 168 tgl 25 0 empty empty empty 17 7 0 10 -262144 -1 -1 0
1;
#X obj 200 104 >= 1;
#X obj 209 219 +;
#X floatatom 209 240 5 0 0 0 - - -;
#X obj 209 260 == 2;
#X obj 209 285 tgl 25 0 empty empty empty 17 7 0 10 -262144 -1 -1 0
1;
#X floatatom 209 341 5 0 0 0 - - -;
#X obj 209 320 change 0;
#X obj 209 361 sel 0 1;
#X floatatom 22 82 5 0 0 0 - - -;
#X obj 22 102 sel 1;
#X obj 167 144 gate 2;
#X obj 130 101 vradio 15 1 0 3 empty empty empty 0 -8 0 10 -232576
-1 -1 1;
#X msg 130 79 1;
#X msg 162 87 2;
#X obj 205 166 bng 15 250 50 0 empty empty empty 17 7 0 10 -261682
-1 -1;
#X floatatom 64 83 5 0 0 0 - - -;
#X obj 64 103 sel 1;
#X floatatom 22 123 5 0 0 0 - - -;
#X floatatom 64 124 5 0 0 0 - - -;
#X msg 23 142 0;
#X obj 209 440 outlet;
#X obj 228 421 outlet;
#X obj 200 23 inlet;
#X obj 240 23 inlet;
#X floatatom 315 80 5 0 0 0 - - -;
#X obj 315 100 sel 1;
#X floatatom 357 81 5 0 0 0 - - -;
#X obj 357 101 sel 1;
#X floatatom 315 121 5 0 0 0 - - -;
#X floatatom 357 122 5 0 0 0 - - -;
#X msg 315 140 0;
#X obj 240 159 gate 2;
#X obj 273 182 bng 15 250 50 0 empty empty empty 17 7 0 10 -261682
-1 -1;
#X obj 314 190 vradio 15 1 0 3 empty empty empty 0 -8 0 10 -204800
-1 -1 2;
#X msg 314 168 1;
#X msg 346 176 2;
#X obj 357 60 > 307;
#X obj 315 59 < 307;
#X obj 240 88 < 455;
#X obj 200 59 < 762;
#X obj 64 62 > 613;
#X obj 22 61 < 613;
#X connect 0 0 5 0;
#X connect 1 0 3 0;
#X connect 2 0 6 1;
#X connect 3 0 36 1;
#X connect 4 0 6 0;
#X connect 5 0 15 1;
#X connect 6 0 7 0;
#X connect 7 0 8 0;
#X connect 8 0 9 0;
#X connect 9 0 11 0;
#X connect 10 0 12 0;
#X connect 11 0 10 0;
#X connect 12 0 25 0;
#X connect 12 1 26 0;
#X connect 13 0 14 0;
#X connect 14 0 22 0;
#X connect 15 0 4 0;
#X connect 15 1 19 0;
#X connect 16 0 15 0;
#X connect 17 0 16 0;
#X connect 18 0 16 0;
#X connect 20 0 21 0;
#X connect 21 0 23 0;
#X connect 22 0 18 0;
#X connect 22 0 24 0;
#X connect 23 0 17 0;
#X connect 24 0 4 0;
#X connect 27 0 44 0;
#X connect 27 0 45 0;
#X connect 27 0 46 0;
#X connect 28 0 41 0;
#X connect 28 0 42 0;
#X connect 28 0 43 0;
#X connect 29 0 30 0;
#X connect 30 0 33 0;
#X connect 31 0 32 0;
#X connect 32 0 34 0;
#X connect 33 0 35 0;
#X connect 33 0 40 0;
#X connect 34 0 39 0;
#X connect 35 0 2 0;
#X connect 36 0 2 0;
#X connect 36 1 37 0;
#X connect 38 0 36 0;
#X connect 39 0 38 0;
#X connect 40 0 38 0;
#X connect 41 0 31 0;
#X connect 42 0 29 0;
#X connect 43 0 1 0;
#X connect 44 0 0 0;
#X connect 45 0 20 0;
#X connect 46 0 13 0;
#X restore 430 813 pd sensor_enceinte_06_M;
#N canvas 774 222 462 490 sensor_enceinte_07_M 0;
#X floatatom 213 86 5 0 0 0 - - -;
#X floatatom 253 111 5 0 0 0 - - -;
#X obj 253 186 tgl 25 0 empty empty empty 17 7 0 10 -262144 -1 -1 0
1;
#X obj 253 131 >= 1;
#X obj 180 170 tgl 25 0 empty empty empty 17 7 0 10 -262144 -1 -1 0
1;
#X obj 213 106 >= 1;
#X obj 222 221 +;
#X floatatom 222 242 5 0 0 0 - - -;
#X obj 222 262 == 2;
#X obj 222 287 tgl 25 0 empty empty empty 17 7 0 10 -262144 -1 -1 0
1;
#X floatatom 222 343 5 0 0 0 - - -;
#X obj 222 322 change 0;
#X obj 222 363 sel 0 1;
#X floatatom 35 84 5 0 0 0 - - -;
#X obj 35 104 sel 1;
#X obj 180 146 gate 2;
#X obj 143 103 vradio 15 1 0 3 empty empty empty 0 -8 0 10 -232576
-1 -1 1;
#X msg 143 81 1;
#X msg 175 89 2;
#X obj 218 168 bng 15 250 50 0 empty empty empty 17 7 0 10 -261682
-1 -1;
#X floatatom 77 85 5 0 0 0 - - -;
#X obj 77 105 sel 1;
#X floatatom 35 125 5 0 0 0 - - -;
#X floatatom 77 126 5 0 0 0 - - -;
#X msg 36 144 0;
#X obj 222 442 outlet;
#X obj 241 423 outlet;
#X obj 213 25 inlet;
#X obj 253 25 inlet;
#X floatatom 328 82 5 0 0 0 - - -;
#X obj 328 102 sel 1;
#X floatatom 370 83 5 0 0 0 - - -;
#X obj 370 103 sel 1;
#X floatatom 328 123 5 0 0 0 - - -;
#X floatatom 370 124 5 0 0 0 - - -;
#X msg 328 142 0;
#X obj 253 161 gate 2;
#X obj 286 184 bng 15 250 50 0 empty empty empty 17 7 0 10 -261682
-1 -1;
#X obj 327 192 vradio 15 1 0 3 empty empty empty 0 -8 0 10 -204800
-1 -1 2;
#X msg 327 170 1;
#X msg 359 178 2;
#X obj 328 61 < 307;
#X obj 370 62 > 307;
#X obj 253 90 < 457;
#X obj 213 61 < 533;
#X obj 77 64 > 383;
#X obj 35 63 < 383;
#X connect 0 0 5 0;
#X connect 1 0 3 0;
#X connect 2 0 6 1;
#X connect 3 0 36 1;
#X connect 4 0 6 0;
#X connect 5 0 15 1;
#X connect 6 0 7 0;
#X connect 7 0 8 0;
#X connect 8 0 9 0;
#X connect 9 0 11 0;
#X connect 10 0 12 0;
#X connect 11 0 10 0;
#X connect 12 0 25 0;
#X connect 12 1 26 0;
#X connect 13 0 14 0;
#X connect 14 0 22 0;
#X connect 15 0 4 0;
#X connect 15 1 19 0;
#X connect 16 0 15 0;
#X connect 17 0 16 0;
#X connect 18 0 16 0;
#X connect 20 0 21 0;
#X connect 21 0 23 0;
#X connect 22 0 18 0;
#X connect 22 0 24 0;
#X connect 23 0 17 0;
#X connect 24 0 4 0;
#X connect 27 0 44 0;
#X connect 27 0 45 0;
#X connect 27 0 46 0;
#X connect 28 0 41 0;
#X connect 28 0 42 0;
#X connect 28 0 43 0;
#X connect 29 0 30 0;
#X connect 30 0 33 0;
#X connect 31 0 32 0;
#X connect 32 0 34 0;
#X connect 33 0 35 0;
#X connect 33 0 40 0;
#X connect 34 0 39 0;
#X connect 35 0 2 0;
#X connect 36 0 2 0;
#X connect 36 1 37 0;
#X connect 38 0 36 0;
#X connect 39 0 38 0;
#X connect 40 0 38 0;
#X connect 41 0 29 0;
#X connect 42 0 31 0;
#X connect 43 0 1 0;
#X connect 44 0 0 0;
#X connect 45 0 20 0;
#X connect 46 0 13 0;
#X restore 228 814 pd sensor_enceinte_07_M;
#N canvas 529 281 454 486 sensor_enceinte_08_M 0;
#X floatatom 208 86 5 0 0 0 - - -;
#X floatatom 248 111 5 0 0 0 - - -;
#X obj 248 186 tgl 25 0 empty empty empty 17 7 0 10 -262144 -1 -1 0
1;
#X obj 248 131 >= 1;
#X obj 175 170 tgl 25 0 empty empty empty 17 7 0 10 -262144 -1 -1 0
1;
#X obj 208 106 >= 1;
#X obj 217 221 +;
#X floatatom 217 242 5 0 0 0 - - -;
#X obj 217 262 == 2;
#X obj 217 287 tgl 25 0 empty empty empty 17 7 0 10 -262144 -1 -1 0
1;
#X floatatom 217 343 5 0 0 0 - - -;
#X obj 217 322 change 0;
#X obj 217 363 sel 0 1;
#X floatatom 30 84 5 0 0 0 - - -;
#X obj 30 104 sel 1;
#X obj 175 146 gate 2;
#X obj 138 103 vradio 15 1 0 3 empty empty empty 0 -8 0 10 -232576
-1 -1 2;
#X msg 138 81 1;
#X msg 170 89 2;
#X obj 213 168 bng 15 250 50 0 empty empty empty 17 7 0 10 -261682
-1 -1;
#X floatatom 72 85 5 0 0 0 - - -;
#X obj 72 105 sel 1;
#X floatatom 30 125 5 0 0 0 - - -;
#X floatatom 72 126 5 0 0 0 - - -;
#X msg 31 144 0;
#X obj 217 442 outlet;
#X obj 236 423 outlet;
#X obj 208 25 inlet;
#X obj 248 25 inlet;
#X floatatom 323 82 5 0 0 0 - - -;
#X obj 323 102 sel 1;
#X floatatom 365 83 5 0 0 0 - - -;
#X obj 365 103 sel 1;
#X floatatom 323 123 5 0 0 0 - - -;
#X floatatom 365 124 5 0 0 0 - - -;
#X msg 323 142 0;
#X obj 248 161 gate 2;
#X obj 281 184 bng 15 250 50 0 empty empty empty 17 7 0 10 -261682
-1 -1;
#X obj 322 192 vradio 15 1 0 3 empty empty empty 0 -8 0 10 -204800
-1 -1 2;
#X msg 322 170 1;
#X msg 354 178 2;
#X obj 323 61 < 307;
#X obj 365 62 > 307;
#X obj 248 90 < 457;
#X obj 72 64 < 304;
#X obj 30 63 > 304;
#X obj 208 61 > 152;
#X connect 0 0 5 0;
#X connect 1 0 3 0;
#X connect 2 0 6 1;
#X connect 3 0 36 1;
#X connect 4 0 6 0;
#X connect 5 0 15 1;
#X connect 6 0 7 0;
#X connect 7 0 8 0;
#X connect 8 0 9 0;
#X connect 9 0 11 0;
#X connect 10 0 12 0;
#X connect 11 0 10 0;
#X connect 12 0 25 0;
#X connect 12 1 26 0;
#X connect 13 0 14 0;
#X connect 14 0 22 0;
#X connect 15 0 4 0;
#X connect 15 1 19 0;
#X connect 16 0 15 0;
#X connect 17 0 16 0;
#X connect 18 0 16 0;
#X connect 20 0 21 0;
#X connect 21 0 23 0;
#X connect 22 0 18 0;
#X connect 22 0 24 0;
#X connect 23 0 17 0;
#X connect 24 0 4 0;
#X connect 27 0 44 0;
#X connect 27 0 45 0;
#X connect 27 0 46 0;
#X connect 28 0 41 0;
#X connect 28 0 42 0;
#X connect 28 0 43 0;
#X connect 29 0 30 0;
#X connect 30 0 33 0;
#X connect 31 0 32 0;
#X connect 32 0 34 0;
#X connect 33 0 35 0;
#X connect 33 0 40 0;
#X connect 34 0 39 0;
#X connect 35 0 2 0;
#X connect 36 0 2 0;
#X connect 36 1 37 0;
#X connect 38 0 36 0;
#X connect 39 0 38 0;
#X connect 40 0 38 0;
#X connect 41 0 29 0;
#X connect 42 0 31 0;
#X connect 43 0 1 0;
#X connect 44 0 20 0;
#X connect 45 0 13 0;
#X connect 46 0 0 0;
#X restore 25 813 pd sensor_enceinte_08_M;
#N canvas 481 38 408 519 sensor_enceinte_01_P 0;
#X floatatom 187 83 5 0 0 0 - - -;
#X floatatom 227 108 5 0 0 0 - - -;
#X obj 227 183 tgl 25 0 empty empty empty 17 7 0 10 -262144 -1 -1 1
1;
#X obj 227 128 >= 1;
#X obj 154 167 tgl 25 0 empty empty empty 17 7 0 10 -262144 -1 -1 0
1;
#X obj 187 103 >= 1;
#X obj 196 218 +;
#X floatatom 196 239 5 0 0 0 - - -;
#X obj 196 259 == 2;
#X obj 196 284 tgl 25 0 empty empty empty 17 7 0 10 -262144 -1 -1 0
1;
#X floatatom 196 340 5 0 0 0 - - -;
#X obj 196 319 change 0;
#X obj 196 360 sel 0 1;
#X floatatom 9 81 5 0 0 0 - - -;
#X obj 9 101 sel 1;
#X obj 154 143 gate 2;
#X obj 117 100 vradio 15 1 0 3 empty empty empty 0 -8 0 10 -232576
-1 -1 1;
#X msg 117 78 1;
#X msg 149 86 2;
#X obj 192 165 bng 15 250 50 0 empty empty empty 17 7 0 10 -261682
-1 -1;
#X floatatom 51 82 5 0 0 0 - - -;
#X obj 51 102 sel 1;
#X floatatom 9 122 5 0 0 0 - - -;
#X floatatom 51 123 5 0 0 0 - - -;
#X msg 10 141 0;
#X obj 196 439 outlet;
#X obj 215 420 outlet;
#X obj 187 22 inlet;
#X obj 227 22 inlet;
#X floatatom 302 79 5 0 0 0 - - -;
#X obj 302 99 sel 1;
#X floatatom 344 80 5 0 0 0 - - -;
#X obj 344 100 sel 1;
#X floatatom 302 120 5 0 0 0 - - -;
#X floatatom 344 121 5 0 0 0 - - -;
#X msg 302 139 0;
#X obj 227 158 gate 2;
#X obj 260 181 bng 15 250 50 0 empty empty empty 17 7 0 10 -261682
-1 -1;
#X obj 301 189 vradio 15 1 0 3 empty empty empty 0 -8 0 10 -204800
-1 -1 1;
#X msg 301 167 1;
#X msg 333 175 2;
#X obj 187 58 < 272;
#X obj 51 61 > 182;
#X obj 9 60 < 182;
#X obj 227 87 < 195;
#X obj 302 58 < 104;
#X obj 344 59 > 104;
#X connect 0 0 5 0;
#X connect 1 0 3 0;
#X connect 2 0 6 1;
#X connect 3 0 36 1;
#X connect 4 0 6 0;
#X connect 5 0 15 1;
#X connect 6 0 7 0;
#X connect 7 0 8 0;
#X connect 8 0 9 0;
#X connect 9 0 11 0;
#X connect 10 0 12 0;
#X connect 11 0 10 0;
#X connect 12 0 25 0;
#X connect 12 1 26 0;
#X connect 13 0 14 0;
#X connect 14 0 22 0;
#X connect 15 0 4 0;
#X connect 15 1 19 0;
#X connect 16 0 15 0;
#X connect 17 0 16 0;
#X connect 18 0 16 0;
#X connect 20 0 21 0;
#X connect 21 0 23 0;
#X connect 22 0 18 0;
#X connect 22 0 24 0;
#X connect 23 0 17 0;
#X connect 24 0 4 0;
#X connect 27 0 41 0;
#X connect 27 0 42 0;
#X connect 27 0 43 0;
#X connect 28 0 44 0;
#X connect 28 0 45 0;
#X connect 28 0 46 0;
#X connect 29 0 30 0;
#X connect 30 0 33 0;
#X connect 31 0 32 0;
#X connect 32 0 34 0;
#X connect 33 0 35 0;
#X connect 33 0 40 0;
#X connect 34 0 39 0;
#X connect 35 0 2 0;
#X connect 36 0 2 0;
#X connect 36 1 37 0;
#X connect 38 0 36 0;
#X connect 39 0 38 0;
#X connect 40 0 38 0;
#X connect 41 0 0 0;
#X connect 42 0 20 0;
#X connect 43 0 13 0;
#X connect 44 0 1 0;
#X connect 45 0 29 0;
#X connect 46 0 31 0;
#X restore 27 1067 pd sensor_enceinte_01_P;
#N canvas 739 196 429 496 sensor_enceinte_02_P 0;
#X floatatom 209 92 5 0 0 0 - - -;
#X floatatom 249 117 5 0 0 0 - - -;
#X obj 249 192 tgl 25 0 empty empty empty 17 7 0 10 -262144 -1 -1 1
1;
#X obj 249 137 >= 1;
#X obj 176 176 tgl 25 0 empty empty empty 17 7 0 10 -262144 -1 -1 0
1;
#X obj 209 112 >= 1;
#X obj 218 227 +;
#X floatatom 218 248 5 0 0 0 - - -;
#X obj 218 268 == 2;
#X obj 218 293 tgl 25 0 empty empty empty 17 7 0 10 -262144 -1 -1 0
1;
#X floatatom 218 349 5 0 0 0 - - -;
#X obj 218 328 change 0;
#X obj 218 369 sel 0 1;
#X floatatom 31 90 5 0 0 0 - - -;
#X obj 31 110 sel 1;
#X obj 176 152 gate 2;
#X obj 139 109 vradio 15 1 0 3 empty empty empty 0 -8 0 10 -232576
-1 -1 1;
#X msg 139 87 1;
#X msg 171 95 2;
#X obj 214 174 bng 15 250 50 0 empty empty empty 17 7 0 10 -261682
-1 -1;
#X floatatom 73 91 5 0 0 0 - - -;
#X obj 73 111 sel 1;
#X floatatom 31 131 5 0 0 0 - - -;
#X floatatom 73 132 5 0 0 0 - - -;
#X msg 32 150 0;
#X obj 218 448 outlet;
#X obj 237 429 outlet;
#X obj 209 31 inlet;
#X obj 249 31 inlet;
#X floatatom 324 88 5 0 0 0 - - -;
#X obj 324 108 sel 1;
#X floatatom 366 89 5 0 0 0 - - -;
#X obj 366 109 sel 1;
#X floatatom 324 129 5 0 0 0 - - -;
#X floatatom 366 130 5 0 0 0 - - -;
#X msg 324 148 0;
#X obj 249 167 gate 2;
#X obj 282 190 bng 15 250 50 0 empty empty empty 17 7 0 10 -261682
-1 -1;
#X obj 323 198 vradio 15 1 0 3 empty empty empty 0 -8 0 10 -204800
-1 -1 1;
#X msg 323 176 1;
#X msg 355 184 2;
#X obj 209 67 < 502;
#X obj 73 70 > 411;
#X obj 31 69 < 411;
#X obj 324 67 < 104;
#X obj 366 68 > 104;
#X obj 249 96 < 195;
#X connect 0 0 5 0;
#X connect 1 0 3 0;
#X connect 2 0 6 1;
#X connect 3 0 36 1;
#X connect 4 0 6 0;
#X connect 5 0 15 1;
#X connect 6 0 7 0;
#X connect 7 0 8 0;
#X connect 8 0 9 0;
#X connect 9 0 11 0;
#X connect 10 0 12 0;
#X connect 11 0 10 0;
#X connect 12 0 25 0;
#X connect 12 1 26 0;
#X connect 13 0 14 0;
#X connect 14 0 22 0;
#X connect 15 0 4 0;
#X connect 15 1 19 0;
#X connect 16 0 15 0;
#X connect 17 0 16 0;
#X connect 18 0 16 0;
#X connect 20 0 21 0;
#X connect 21 0 23 0;
#X connect 22 0 18 0;
#X connect 22 0 24 0;
#X connect 23 0 17 0;
#X connect 24 0 4 0;
#X connect 27 0 41 0;
#X connect 27 0 42 0;
#X connect 27 0 43 0;
#X connect 28 0 44 0;
#X connect 28 0 45 0;
#X connect 28 0 46 0;
#X connect 29 0 30 0;
#X connect 30 0 33 0;
#X connect 31 0 32 0;
#X connect 32 0 34 0;
#X connect 33 0 35 0;
#X connect 33 0 40 0;
#X connect 34 0 39 0;
#X connect 35 0 2 0;
#X connect 36 0 2 0;
#X connect 36 1 37 0;
#X connect 38 0 36 0;
#X connect 39 0 38 0;
#X connect 40 0 38 0;
#X connect 41 0 0 0;
#X connect 42 0 20 0;
#X connect 43 0 13 0;
#X connect 44 0 29 0;
#X connect 45 0 31 0;
#X connect 46 0 1 0;
#X restore 197 1067 pd sensor_enceinte_02_P;
#N canvas 125 261 425 517 sensor_enceinte_03_P 0;
#X floatatom 202 100 5 0 0 0 - - -;
#X floatatom 242 125 5 0 0 0 - - -;
#X obj 242 200 tgl 25 0 empty empty empty 17 7 0 10 -262144 -1 -1 1
1;
#X obj 242 145 >= 1;
#X obj 169 184 tgl 25 0 empty empty empty 17 7 0 10 -262144 -1 -1 0
1;
#X obj 202 120 >= 1;
#X obj 211 235 +;
#X floatatom 211 256 5 0 0 0 - - -;
#X obj 211 276 == 2;
#X obj 211 301 tgl 25 0 empty empty empty 17 7 0 10 -262144 -1 -1 0
1;
#X floatatom 211 357 5 0 0 0 - - -;
#X obj 211 336 change 0;
#X obj 211 377 sel 0 1;
#X floatatom 24 98 5 0 0 0 - - -;
#X obj 24 118 sel 1;
#X obj 169 160 gate 2;
#X obj 132 117 vradio 15 1 0 3 empty empty empty 0 -8 0 10 -232576
-1 -1 1;
#X msg 132 95 1;
#X msg 164 103 2;
#X obj 207 182 bng 15 250 50 0 empty empty empty 17 7 0 10 -261682
-1 -1;
#X floatatom 66 99 5 0 0 0 - - -;
#X obj 66 119 sel 1;
#X floatatom 24 139 5 0 0 0 - - -;
#X floatatom 66 140 5 0 0 0 - - -;
#X msg 25 158 0;
#X obj 211 456 outlet;
#X obj 230 437 outlet;
#X obj 202 39 inlet;
#X obj 242 39 inlet;
#X floatatom 317 96 5 0 0 0 - - -;
#X obj 317 116 sel 1;
#X floatatom 359 97 5 0 0 0 - - -;
#X obj 359 117 sel 1;
#X floatatom 317 137 5 0 0 0 - - -;
#X floatatom 359 138 5 0 0 0 - - -;
#X msg 317 156 0;
#X obj 242 175 gate 2;
#X obj 275 198 bng 15 250 50 0 empty empty empty 17 7 0 10 -261682
-1 -1;
#X obj 316 206 vradio 15 1 0 3 empty empty empty 0 -8 0 10 -204800
-1 -1 1;
#X msg 316 184 1;
#X msg 348 192 2;
#X obj 317 75 < 104;
#X obj 359 76 > 104;
#X obj 242 104 < 195;
#X obj 202 75 < 733;
#X obj 66 78 > 643;
#X obj 24 77 < 643;
#X connect 0 0 5 0;
#X connect 1 0 3 0;
#X connect 2 0 6 1;
#X connect 3 0 36 1;
#X connect 4 0 6 0;
#X connect 5 0 15 1;
#X connect 6 0 7 0;
#X connect 7 0 8 0;
#X connect 8 0 9 0;
#X connect 9 0 11 0;
#X connect 10 0 12 0;
#X connect 11 0 10 0;
#X connect 12 0 25 0;
#X connect 12 1 26 0;
#X connect 13 0 14 0;
#X connect 14 0 22 0;
#X connect 15 0 4 0;
#X connect 15 1 19 0;
#X connect 16 0 15 0;
#X connect 17 0 16 0;
#X connect 18 0 16 0;
#X connect 20 0 21 0;
#X connect 21 0 23 0;
#X connect 22 0 18 0;
#X connect 22 0 24 0;
#X connect 23 0 17 0;
#X connect 24 0 4 0;
#X connect 27 0 44 0;
#X connect 27 0 45 0;
#X connect 27 0 46 0;
#X connect 28 0 41 0;
#X connect 28 0 42 0;
#X connect 28 0 43 0;
#X connect 29 0 30 0;
#X connect 30 0 33 0;
#X connect 31 0 32 0;
#X connect 32 0 34 0;
#X connect 33 0 35 0;
#X connect 33 0 40 0;
#X connect 34 0 39 0;
#X connect 35 0 2 0;
#X connect 36 0 2 0;
#X connect 36 1 37 0;
#X connect 38 0 36 0;
#X connect 39 0 38 0;
#X connect 40 0 38 0;
#X connect 41 0 29 0;
#X connect 42 0 31 0;
#X connect 43 0 1 0;
#X connect 44 0 0 0;
#X connect 45 0 20 0;
#X connect 46 0 13 0;
#X restore 419 1066 pd sensor_enceinte_03_P;
#N canvas 33 35 451 508 sensor_enceinte_04_P 0;
#X floatatom 212 91 5 0 0 0 - - -;
#X floatatom 252 116 5 0 0 0 - - -;
#X obj 252 191 tgl 25 0 empty empty empty 17 7 0 10 -262144 -1 -1 1
1;
#X obj 252 136 >= 1;
#X obj 179 175 tgl 25 0 empty empty empty 17 7 0 10 -262144 -1 -1 0
1;
#X obj 212 111 >= 1;
#X obj 221 226 +;
#X floatatom 221 247 5 0 0 0 - - -;
#X obj 221 267 == 2;
#X obj 221 292 tgl 25 0 empty empty empty 17 7 0 10 -262144 -1 -1 0
1;
#X floatatom 221 348 5 0 0 0 - - -;
#X obj 221 327 change 0;
#X obj 221 368 sel 0 1;
#X floatatom 34 89 5 0 0 0 - - -;
#X obj 34 109 sel 1;
#X obj 179 151 gate 2;
#X obj 142 108 vradio 15 1 0 3 empty empty empty 0 -8 0 10 -232576
-1 -1 2;
#X msg 142 86 1;
#X msg 174 94 2;
#X obj 217 173 bng 15 250 50 0 empty empty empty 17 7 0 10 -261682
-1 -1;
#X floatatom 76 90 5 0 0 0 - - -;
#X obj 76 110 sel 1;
#X floatatom 34 130 5 0 0 0 - - -;
#X floatatom 76 131 5 0 0 0 - - -;
#X msg 35 149 0;
#X obj 221 447 outlet;
#X obj 240 428 outlet;
#X obj 212 30 inlet;
#X obj 252 30 inlet;
#X floatatom 327 87 5 0 0 0 - - -;
#X obj 327 107 sel 1;
#X floatatom 369 88 5 0 0 0 - - -;
#X obj 369 108 sel 1;
#X floatatom 327 128 5 0 0 0 - - -;
#X floatatom 369 129 5 0 0 0 - - -;
#X msg 327 147 0;
#X obj 252 166 gate 2;
#X obj 285 189 bng 15 250 50 0 empty empty empty 17 7 0 10 -261682
-1 -1;
#X obj 326 197 vradio 15 1 0 3 empty empty empty 0 -8 0 10 -204800
-1 -1 1;
#X msg 326 175 1;
#X msg 358 183 2;
#X obj 327 66 < 104;
#X obj 369 67 > 104;
#X obj 252 95 < 195;
#X obj 76 69 < 966;
#X obj 34 68 > 966;
#X obj 212 66 > 875;
#X connect 0 0 5 0;
#X connect 1 0 3 0;
#X connect 2 0 6 1;
#X connect 3 0 36 1;
#X connect 4 0 6 0;
#X connect 5 0 15 1;
#X connect 6 0 7 0;
#X connect 7 0 8 0;
#X connect 8 0 9 0;
#X connect 9 0 11 0;
#X connect 10 0 12 0;
#X connect 11 0 10 0;
#X connect 12 0 25 0;
#X connect 12 1 26 0;
#X connect 13 0 14 0;
#X connect 14 0 22 0;
#X connect 15 0 4 0;
#X connect 15 1 19 0;
#X connect 16 0 15 0;
#X connect 17 0 16 0;
#X connect 18 0 16 0;
#X connect 20 0 21 0;
#X connect 21 0 23 0;
#X connect 22 0 18 0;
#X connect 22 0 24 0;
#X connect 23 0 17 0;
#X connect 24 0 4 0;
#X connect 27 0 44 0;
#X connect 27 0 45 0;
#X connect 27 0 46 0;
#X connect 28 0 41 0;
#X connect 28 0 42 0;
#X connect 28 0 43 0;
#X connect 29 0 30 0;
#X connect 30 0 33 0;
#X connect 31 0 32 0;
#X connect 32 0 34 0;
#X connect 33 0 35 0;
#X connect 33 0 40 0;
#X connect 34 0 39 0;
#X connect 35 0 2 0;
#X connect 36 0 2 0;
#X connect 36 1 37 0;
#X connect 38 0 36 0;
#X connect 39 0 38 0;
#X connect 40 0 38 0;
#X connect 41 0 29 0;
#X connect 42 0 31 0;
#X connect 43 0 1 0;
#X connect 44 0 20 0;
#X connect 45 0 13 0;
#X connect 46 0 0 0;
#X restore 618 1062 pd sensor_enceinte_04_P;
#N canvas 45 56 452 497 sensor_enceinte_05_P 0;
#X floatatom 209 90 5 0 0 0 - - -;
#X floatatom 249 115 5 0 0 0 - - -;
#X obj 249 190 tgl 25 0 empty empty empty 17 7 0 10 -262144 -1 -1 0
1;
#X obj 249 135 >= 1;
#X obj 176 174 tgl 25 0 empty empty empty 17 7 0 10 -262144 -1 -1 0
1;
#X obj 209 110 >= 1;
#X obj 218 225 +;
#X floatatom 218 246 5 0 0 0 - - -;
#X obj 218 266 == 2;
#X obj 218 291 tgl 25 0 empty empty empty 17 7 0 10 -262144 -1 -1 0
1;
#X floatatom 218 347 5 0 0 0 - - -;
#X obj 218 326 change 0;
#X obj 218 367 sel 0 1;
#X floatatom 31 88 5 0 0 0 - - -;
#X obj 31 108 sel 1;
#X obj 176 150 gate 2;
#X obj 139 107 vradio 15 1 0 3 empty empty empty 0 -8 0 10 -232576
-1 -1 2;
#X msg 139 85 1;
#X msg 171 93 2;
#X obj 214 172 bng 15 250 50 0 empty empty empty 17 7 0 10 -261682
-1 -1;
#X floatatom 73 89 5 0 0 0 - - -;
#X obj 73 109 sel 1;
#X floatatom 31 129 5 0 0 0 - - -;
#X floatatom 73 130 5 0 0 0 - - -;
#X msg 32 148 0;
#X obj 218 446 outlet;
#X obj 237 427 outlet;
#X obj 209 29 inlet;
#X obj 249 29 inlet;
#X floatatom 324 86 5 0 0 0 - - -;
#X obj 324 106 sel 1;
#X floatatom 366 87 5 0 0 0 - - -;
#X obj 366 107 sel 1;
#X floatatom 324 127 5 0 0 0 - - -;
#X floatatom 366 128 5 0 0 0 - - -;
#X msg 324 146 0;
#X obj 249 165 gate 2;
#X obj 282 188 bng 15 250 50 0 empty empty empty 17 7 0 10 -261682
-1 -1;
#X obj 323 196 vradio 15 1 0 3 empty empty empty 0 -8 0 10 -204800
-1 -1 1;
#X msg 323 174 1;
#X msg 355 182 2;
#X obj 73 68 < 966;
#X obj 31 67 > 966;
#X obj 209 65 > 875;
#X obj 324 65 > 426;
#X obj 366 66 < 426;
#X obj 249 94 > 337;
#X connect 0 0 5 0;
#X connect 1 0 3 0;
#X connect 2 0 6 1;
#X connect 3 0 36 1;
#X connect 4 0 6 0;
#X connect 5 0 15 1;
#X connect 6 0 7 0;
#X connect 7 0 8 0;
#X connect 8 0 9 0;
#X connect 9 0 11 0;
#X connect 10 0 12 0;
#X connect 11 0 10 0;
#X connect 12 0 25 0;
#X connect 12 1 26 0;
#X connect 13 0 14 0;
#X connect 14 0 22 0;
#X connect 15 0 4 0;
#X connect 15 1 19 0;
#X connect 16 0 15 0;
#X connect 17 0 16 0;
#X connect 18 0 16 0;
#X connect 20 0 21 0;
#X connect 21 0 23 0;
#X connect 22 0 18 0;
#X connect 22 0 24 0;
#X connect 23 0 17 0;
#X connect 24 0 4 0;
#X connect 27 0 41 0;
#X connect 27 0 42 0;
#X connect 27 0 43 0;
#X connect 28 0 44 0;
#X connect 28 0 45 0;
#X connect 28 0 46 0;
#X connect 29 0 30 0;
#X connect 30 0 33 0;
#X connect 31 0 32 0;
#X connect 32 0 34 0;
#X connect 33 0 35 0;
#X connect 33 0 40 0;
#X connect 34 0 39 0;
#X connect 35 0 2 0;
#X connect 36 0 2 0;
#X connect 36 1 37 0;
#X connect 38 0 36 0;
#X connect 39 0 38 0;
#X connect 40 0 38 0;
#X connect 41 0 20 0;
#X connect 42 0 13 0;
#X connect 43 0 0 0;
#X connect 44 0 29 0;
#X connect 45 0 31 0;
#X connect 46 0 1 0;
#X restore 621 1289 pd sensor_enceinte_05_P;
#N canvas 0 27 429 493 sensor_enceinte_06_P 0;
#X floatatom 200 84 5 0 0 0 - - -;
#X floatatom 240 109 5 0 0 0 - - -;
#X obj 240 184 tgl 25 0 empty empty empty 17 7 0 10 -262144 -1 -1 0
1;
#X obj 240 129 >= 1;
#X obj 167 168 tgl 25 0 empty empty empty 17 7 0 10 -262144 -1 -1 0
1;
#X obj 200 104 >= 1;
#X obj 209 219 +;
#X floatatom 209 240 5 0 0 0 - - -;
#X obj 209 260 == 2;
#X obj 209 285 tgl 25 0 empty empty empty 17 7 0 10 -262144 -1 -1 0
1;
#X floatatom 209 341 5 0 0 0 - - -;
#X obj 209 320 change 0;
#X obj 209 361 sel 0 1;
#X floatatom 22 82 5 0 0 0 - - -;
#X obj 22 102 sel 1;
#X obj 167 144 gate 2;
#X obj 130 101 vradio 15 1 0 3 empty empty empty 0 -8 0 10 -232576
-1 -1 1;
#X msg 130 79 1;
#X msg 162 87 2;
#X obj 205 166 bng 15 250 50 0 empty empty empty 17 7 0 10 -261682
-1 -1;
#X floatatom 64 83 5 0 0 0 - - -;
#X obj 64 103 sel 1;
#X floatatom 22 123 5 0 0 0 - - -;
#X floatatom 64 124 5 0 0 0 - - -;
#X msg 23 142 0;
#X obj 209 440 outlet;
#X obj 228 421 outlet;
#X obj 200 23 inlet;
#X obj 240 23 inlet;
#X floatatom 315 80 5 0 0 0 - - -;
#X obj 315 100 sel 1;
#X floatatom 357 81 5 0 0 0 - - -;
#X obj 357 101 sel 1;
#X floatatom 315 121 5 0 0 0 - - -;
#X floatatom 357 122 5 0 0 0 - - -;
#X msg 315 140 0;
#X obj 240 159 gate 2;
#X obj 273 182 bng 15 250 50 0 empty empty empty 17 7 0 10 -261682
-1 -1;
#X obj 314 190 vradio 15 1 0 3 empty empty empty 0 -8 0 10 -204800
-1 -1 1;
#X msg 314 168 1;
#X msg 346 176 2;
#X obj 315 59 > 426;
#X obj 357 60 < 426;
#X obj 240 88 > 337;
#X obj 200 59 < 733;
#X obj 64 62 > 643;
#X obj 22 61 < 643;
#X connect 0 0 5 0;
#X connect 1 0 3 0;
#X connect 2 0 6 1;
#X connect 3 0 36 1;
#X connect 4 0 6 0;
#X connect 5 0 15 1;
#X connect 6 0 7 0;
#X connect 7 0 8 0;
#X connect 8 0 9 0;
#X connect 9 0 11 0;
#X connect 10 0 12 0;
#X connect 11 0 10 0;
#X connect 12 0 25 0;
#X connect 12 1 26 0;
#X connect 13 0 14 0;
#X connect 14 0 22 0;
#X connect 15 0 4 0;
#X connect 15 1 19 0;
#X connect 16 0 15 0;
#X connect 17 0 16 0;
#X connect 18 0 16 0;
#X connect 20 0 21 0;
#X connect 21 0 23 0;
#X connect 22 0 18 0;
#X connect 22 0 24 0;
#X connect 23 0 17 0;
#X connect 24 0 4 0;
#X connect 27 0 44 0;
#X connect 27 0 45 0;
#X connect 27 0 46 0;
#X connect 28 0 41 0;
#X connect 28 0 42 0;
#X connect 28 0 43 0;
#X connect 29 0 30 0;
#X connect 30 0 33 0;
#X connect 31 0 32 0;
#X connect 32 0 34 0;
#X connect 33 0 35 0;
#X connect 33 0 40 0;
#X connect 34 0 39 0;
#X connect 35 0 2 0;
#X connect 36 0 2 0;
#X connect 36 1 37 0;
#X connect 38 0 36 0;
#X connect 39 0 38 0;
#X connect 40 0 38 0;
#X connect 41 0 29 0;
#X connect 42 0 31 0;
#X connect 43 0 1 0;
#X connect 44 0 0 0;
#X connect 45 0 20 0;
#X connect 46 0 13 0;
#X restore 432 1292 pd sensor_enceinte_06_P;
#N canvas 720 97 462 490 sensor_enceinte_07_P 0;
#X floatatom 213 86 5 0 0 0 - - -;
#X floatatom 253 111 5 0 0 0 - - -;
#X obj 253 186 tgl 25 0 empty empty empty 17 7 0 10 -262144 -1 -1 0
1;
#X obj 253 131 >= 1;
#X obj 180 170 tgl 25 0 empty empty empty 17 7 0 10 -262144 -1 -1 0
1;
#X obj 213 106 >= 1;
#X obj 222 221 +;
#X floatatom 222 242 5 0 0 0 - - -;
#X obj 222 262 == 2;
#X obj 222 287 tgl 25 0 empty empty empty 17 7 0 10 -262144 -1 -1 0
1;
#X floatatom 222 343 5 0 0 0 - - -;
#X obj 222 322 change 0;
#X obj 222 363 sel 0 1;
#X floatatom 35 84 5 0 0 0 - - -;
#X obj 35 104 sel 1;
#X obj 180 146 gate 2;
#X obj 143 103 vradio 15 1 0 3 empty empty empty 0 -8 0 10 -232576
-1 -1 1;
#X msg 143 81 1;
#X msg 175 89 2;
#X obj 218 168 bng 15 250 50 0 empty empty empty 17 7 0 10 -261682
-1 -1;
#X floatatom 77 85 5 0 0 0 - - -;
#X obj 77 105 sel 1;
#X floatatom 35 125 5 0 0 0 - - -;
#X floatatom 77 126 5 0 0 0 - - -;
#X msg 36 144 0;
#X obj 222 442 outlet;
#X obj 241 423 outlet;
#X obj 213 25 inlet;
#X obj 253 25 inlet;
#X floatatom 328 82 5 0 0 0 - - -;
#X obj 328 102 sel 1;
#X floatatom 370 83 5 0 0 0 - - -;
#X obj 370 103 sel 1;
#X floatatom 328 123 5 0 0 0 - - -;
#X floatatom 370 124 5 0 0 0 - - -;
#X msg 328 142 0;
#X obj 253 161 gate 2;
#X obj 286 184 bng 15 250 50 0 empty empty empty 17 7 0 10 -261682
-1 -1;
#X obj 327 192 vradio 15 1 0 3 empty empty empty 0 -8 0 10 -204800
-1 -1 2;
#X msg 327 170 1;
#X msg 359 178 2;
#X obj 328 61 < 336;
#X obj 370 62 > 336;
#X obj 253 90 < 427;
#X obj 213 61 < 505;
#X obj 77 64 > 413;
#X obj 35 63 < 413;
#X connect 0 0 5 0;
#X connect 1 0 3 0;
#X connect 2 0 6 1;
#X connect 3 0 36 1;
#X connect 4 0 6 0;
#X connect 5 0 15 1;
#X connect 6 0 7 0;
#X connect 7 0 8 0;
#X connect 8 0 9 0;
#X connect 9 0 11 0;
#X connect 10 0 12 0;
#X connect 11 0 10 0;
#X connect 12 0 25 0;
#X connect 12 1 26 0;
#X connect 13 0 14 0;
#X connect 14 0 22 0;
#X connect 15 0 4 0;
#X connect 15 1 19 0;
#X connect 16 0 15 0;
#X connect 17 0 16 0;
#X connect 18 0 16 0;
#X connect 20 0 21 0;
#X connect 21 0 23 0;
#X connect 22 0 18 0;
#X connect 22 0 24 0;
#X connect 23 0 17 0;
#X connect 24 0 4 0;
#X connect 27 0 44 0;
#X connect 27 0 45 0;
#X connect 27 0 46 0;
#X connect 28 0 41 0;
#X connect 28 0 42 0;
#X connect 28 0 43 0;
#X connect 29 0 30 0;
#X connect 30 0 33 0;
#X connect 31 0 32 0;
#X connect 32 0 34 0;
#X connect 33 0 35 0;
#X connect 33 0 40 0;
#X connect 34 0 39 0;
#X connect 35 0 2 0;
#X connect 36 0 2 0;
#X connect 36 1 37 0;
#X connect 38 0 36 0;
#X connect 39 0 38 0;
#X connect 40 0 38 0;
#X connect 41 0 29 0;
#X connect 42 0 31 0;
#X connect 43 0 1 0;
#X connect 44 0 0 0;
#X connect 45 0 20 0;
#X connect 46 0 13 0;
#X restore 230 1293 pd sensor_enceinte_07_P;
#N canvas 786 242 454 486 sensor_enceinte_08_P 0;
#X floatatom 208 86 5 0 0 0 - - -;
#X floatatom 248 111 5 0 0 0 - - -;
#X obj 248 186 tgl 25 0 empty empty empty 17 7 0 10 -262144 -1 -1 0
1;
#X obj 248 131 >= 1;
#X obj 175 170 tgl 25 0 empty empty empty 17 7 0 10 -262144 -1 -1 0
1;
#X obj 208 106 >= 1;
#X obj 217 221 +;
#X floatatom 217 242 5 0 0 0 - - -;
#X obj 217 262 == 2;
#X obj 217 287 tgl 25 0 empty empty empty 17 7 0 10 -262144 -1 -1 0
1;
#X floatatom 217 343 5 0 0 0 - - -;
#X obj 217 322 change 0;
#X obj 217 363 sel 0 1;
#X floatatom 30 84 5 0 0 0 - - -;
#X obj 30 104 sel 1;
#X obj 175 146 gate 2;
#X obj 138 103 vradio 15 1 0 3 empty empty empty 0 -8 0 10 -232576
-1 -1 2;
#X msg 138 81 1;
#X msg 170 89 2;
#X obj 213 168 bng 15 250 50 0 empty empty empty 17 7 0 10 -261682
-1 -1;
#X floatatom 72 85 5 0 0 0 - - -;
#X obj 72 105 sel 1;
#X floatatom 30 125 5 0 0 0 - - -;
#X floatatom 72 126 5 0 0 0 - - -;
#X msg 31 144 0;
#X obj 217 442 outlet;
#X obj 236 423 outlet;
#X obj 208 25 inlet;
#X obj 248 25 inlet;
#X floatatom 323 82 5 0 0 0 - - -;
#X obj 323 102 sel 1;
#X floatatom 365 83 5 0 0 0 - - -;
#X obj 365 103 sel 1;
#X floatatom 323 123 5 0 0 0 - - -;
#X floatatom 365 124 5 0 0 0 - - -;
#X msg 323 142 0;
#X obj 248 161 gate 2;
#X obj 281 184 bng 15 250 50 0 empty empty empty 17 7 0 10 -261682
-1 -1;
#X obj 322 192 vradio 15 1 0 3 empty empty empty 0 -8 0 10 -204800
-1 -1 2;
#X msg 322 170 1;
#X msg 354 178 2;
#X obj 248 90 < 427;
#X obj 323 61 < 336;
#X obj 365 62 > 336;
#X obj 72 64 < 274;
#X obj 30 63 > 274;
#X obj 208 61 > 185;
#X connect 0 0 5 0;
#X connect 1 0 3 0;
#X connect 2 0 6 1;
#X connect 3 0 36 1;
#X connect 4 0 6 0;
#X connect 5 0 15 1;
#X connect 6 0 7 0;
#X connect 7 0 8 0;
#X connect 8 0 9 0;
#X connect 9 0 11 0;
#X connect 10 0 12 0;
#X connect 11 0 10 0;
#X connect 12 0 25 0;
#X connect 12 1 26 0;
#X connect 13 0 14 0;
#X connect 14 0 22 0;
#X connect 15 0 4 0;
#X connect 15 1 19 0;
#X connect 16 0 15 0;
#X connect 17 0 16 0;
#X connect 18 0 16 0;
#X connect 20 0 21 0;
#X connect 21 0 23 0;
#X connect 22 0 18 0;
#X connect 22 0 24 0;
#X connect 23 0 17 0;
#X connect 24 0 4 0;
#X connect 27 0 44 0;
#X connect 27 0 45 0;
#X connect 27 0 46 0;
#X connect 28 0 41 0;
#X connect 28 0 42 0;
#X connect 28 0 43 0;
#X connect 29 0 30 0;
#X connect 30 0 33 0;
#X connect 31 0 32 0;
#X connect 32 0 34 0;
#X connect 33 0 35 0;
#X connect 33 0 40 0;
#X connect 34 0 39 0;
#X connect 35 0 2 0;
#X connect 36 0 2 0;
#X connect 36 1 37 0;
#X connect 38 0 36 0;
#X connect 39 0 38 0;
#X connect 40 0 38 0;
#X connect 41 0 1 0;
#X connect 42 0 29 0;
#X connect 43 0 31 0;
#X connect 44 0 20 0;
#X connect 45 0 13 0;
#X connect 46 0 0 0;
#X restore 27 1292 pd sensor_enceinte_08_P;
#X obj 27 724 tabplay~ tab09;
#X obj 215 725 tabplay~ tab10;
#X obj 408 725 tabplay~ tab11;
#X obj 599 725 tabplay~ tab12;
#X obj 30 949 tabplay~ tab13;
#X obj 218 950 tabplay~ tab14;
#X obj 411 950 tabplay~ tab15;
#X obj 602 950 tabplay~ tab16;
#X obj 603 1207 tabplay~ tab17;
#X obj 412 1207 tabplay~ tab18;
#X obj 219 1207 tabplay~ tab19;
#X obj 31 1206 tabplay~ tab20;
#X obj 32 1428 tabplay~ tab21;
#X obj 220 1429 tabplay~ tab22;
#X obj 413 1429 tabplay~ tab23;
#X obj 604 1429 tabplay~ tab24;
#X floatatom 26 558 5 0 0 0 - - -;
#X floatatom 69 558 5 0 0 0 - - -;
#X floatatom 28 1038 5 0 0 0 - - -;
#X floatatom 71 1038 5 0 0 0 - - -;
#X text 131 16 - faire entrecroiser les zones afin qu'elles puissent
toutes se dclencher (si par exemple quelqu'un est au centre de 4
enceintes), f 67;
#X msg 930 464 read -resize IteOstiToniqueBoutJetAir_Acc.wav tab09
;
#X msg 937 484 read -resize W-EmbTubesMetal_Mod2notes.wav tab10;
#X msg 944 504 read -resize Tn_Flute_Trem1.wav tab11;
#X msg 951 524 read -resize Flute_GrainIte_Delay.wav tab12;
#X msg 958 545 read -resize HnAncheTubesMetal_Grain.wav tab13;
#X msg 965 565 read -resize TxBoutJetAir_MasseAmin.wav tab14;
#X msg 972 585 read -resize Zy_CordeGratteeUp.wav tab15;
#X msg 873 303 read -resize Enceinte01_Synth_G.wav tab01;
#X msg 880 323 read -resize Enceinte02_Synth_G.wav tab02;
#X msg 887 343 read -resize Enceinte03_Synth_G.wav tab03;
#X msg 894 363 read -resize Enceinte04_Synth_G.wav tab04;
#X msg 901 383 read -resize Enceinte05_Synth_G.wav tab05;
#X msg 908 403 read -resize Enceinte06_Synth_G.wav tab06;
#X msg 915 423 read -resize Enceinte07_Synth_G.wav tab07;
#X msg 922 443 read -resize Enceinte08_Synth_G.wav tab08;
#X obj 647 544 bng 15 250 50 0 empty empty empty 17 7 0 10 -204800
-1 -1;
#X obj 690 21 inlet;
#X text 675 3 stop samples;
#X msg 690 42 stop;
#X obj 607 23 inlet;
#X text 592 5 go samples;
#X msg 607 44 bang;
#X obj 407 220 tabplay~ tab03;
#X obj 214 220 tabplay~ tab02;
#X obj 26 219 tabplay~ tab01;
#X obj 647 521 gate 2;
#X obj 758 478 vradio 15 1 0 3 empty empty empty 0 -8 0 10 -261682
-1 -1 2;
#X msg 758 456 1;
#X msg 790 464 2;
#X obj 456 544 bng 15 250 50 0 empty empty empty 17 7 0 10 -203904
-1 -1;
#X obj 456 521 gate 2;
#X obj 271 536 bng 15 250 50 0 empty empty empty 17 7 0 10 -232576
-1 -1;
#X obj 271 513 gate 2;
#X obj 80 536 bng 15 250 50 0 empty empty empty 17 7 0 10 -191407 -1
-1;
#X obj 80 513 gate 2;
#X obj 651 300 bng 15 250 50 0 empty empty empty 17 7 0 10 -204786
-1 -1;
#X obj 651 277 gate 2;
#X obj 460 300 bng 15 250 50 0 empty empty empty 17 7 0 10 -262130
-1 -1;
#X obj 460 277 gate 2;
#X obj 275 292 bng 15 250 50 0 empty empty empty 17 7 0 10 -261682
-1 -1;
#X obj 275 269 gate 2;
#X obj 84 292 bng 15 250 50 0 empty empty empty 17 7 0 10 -261234 -1
-1;
#X obj 84 269 gate 2;
#X obj 683 548 bng 15 250 50 0 empty empty empty 17 7 0 10 -262144
-1 -1;
#X obj 492 548 bng 15 250 50 0 empty empty empty 17 7 0 10 -262144
-1 -1;
#X obj 307 540 bng 15 250 50 0 empty empty empty 17 7 0 10 -262144
-1 -1;
#X obj 116 540 bng 15 250 50 0 empty empty empty 17 7 0 10 -262144
-1 -1;
#X obj 687 304 bng 15 250 50 0 empty empty empty 17 7 0 10 -262144
-1 -1;
#X obj 496 304 bng 15 250 50 0 empty empty empty 17 7 0 10 -262144
-1 -1;
#X obj 311 296 bng 15 250 50 0 empty empty empty 17 7 0 10 -262144
-1 -1;
#X obj 120 296 bng 15 250 50 0 empty empty empty 17 7 0 10 -262144
-1 -1;
#X msg 135 130 0 3000;
#X msg 136 377 0 3000;
#X msg 330 379 0 3000;
#X msg 329 132 0 3000;
#X msg 522 132 0 3000;
#X msg 523 379 0 3000;
#X msg 714 379 0 3000;
#X msg 713 132 0 3000;
#X text 840 818 - dans ce contexte \, chaque HP comporte un capteur
de proximit qui possde 3 degrs de dclenchements chacun;
#X text 843 863 - les trames sonores sont joues en continu (loops
d'environ 3 minutes) et les capteurs permettent de dclencher des
variations de volume (fade-in/fade-ou);
#X msg 124 106 0.3 350;
#X msg 125 353 0.3 350;
#X msg 316 358 0.3 350;
#X msg 509 358 0.3 350;
#X msg 700 358 0.3 350;
#X msg 699 111 0.3 350;
#X msg 508 111 0.3 350;
#X msg 315 111 0.3 350;
#X connect 0 0 1 0;
#X connect 1 0 2 0;
#X connect 2 0 4 1;
#X connect 2 0 5 1;
#X connect 4 0 3 0;
#X connect 5 0 3 1;
#X connect 6 0 387 0;
#X connect 9 0 370 0;
#X connect 9 0 41 0;
#X connect 9 0 40 0;
#X connect 9 0 39 0;
#X connect 9 0 38 0;
#X connect 9 0 366 0;
#X connect 9 0 365 0;
#X connect 9 0 364 0;
#X connect 9 0 363 0;
#X connect 9 0 37 0;
#X connect 9 0 36 0;
#X connect 9 0 35 0;
#X connect 9 0 34 0;
#X connect 9 0 377 0;
#X connect 9 0 376 0;
#X connect 9 0 375 0;
#X connect 9 0 33 0;
#X connect 9 0 369 0;
#X connect 9 0 368 0;
#X connect 9 0 367 0;
#X connect 9 0 373 0;
#X connect 9 0 372 0;
#X connect 9 0 371 0;
#X connect 9 0 374 0;
#X connect 33 0 7 0;
#X connect 34 0 7 0;
#X connect 35 0 7 0;
#X connect 36 0 7 0;
#X connect 37 0 7 0;
#X connect 38 0 7 0;
#X connect 39 0 7 0;
#X connect 40 0 7 0;
#X connect 41 0 7 0;
#X connect 42 0 0 0;
#X connect 43 0 45 0;
#X connect 44 0 46 0;
#X connect 45 0 319 0;
#X connect 45 0 320 0;
#X connect 45 0 321 0;
#X connect 45 0 322 0;
#X connect 45 0 323 0;
#X connect 45 0 324 0;
#X connect 45 0 325 0;
#X connect 45 0 318 0;
#X connect 45 0 358 0;
#X connect 46 0 319 1;
#X connect 46 0 320 1;
#X connect 46 0 321 1;
#X connect 46 0 322 1;
#X connect 46 0 323 1;
#X connect 46 0 324 1;
#X connect 46 0 325 1;
#X connect 46 0 318 1;
#X connect 46 0 359 0;
#X connect 49 0 414 0;
#X connect 50 0 42 0;
#X connect 51 0 386 0;
#X connect 52 0 53 0;
#X connect 53 0 54 0;
#X connect 54 0 56 1;
#X connect 54 0 57 1;
#X connect 56 0 55 0;
#X connect 57 0 55 1;
#X connect 58 0 52 0;
#X connect 59 0 58 0;
#X connect 60 0 417 0;
#X connect 61 0 385 0;
#X connect 62 0 63 0;
#X connect 63 0 64 0;
#X connect 64 0 66 1;
#X connect 64 0 67 1;
#X connect 66 0 65 0;
#X connect 67 0 65 1;
#X connect 68 0 62 0;
#X connect 69 0 68 0;
#X connect 70 0 117 0;
#X connect 71 0 72 0;
#X connect 72 0 73 0;
#X connect 73 0 75 1;
#X connect 73 0 76 1;
#X connect 75 0 74 0;
#X connect 76 0 74 1;
#X connect 77 0 71 0;
#X connect 78 0 77 0;
#X connect 79 0 80 0;
#X connect 80 0 81 0;
#X connect 81 0 83 1;
#X connect 81 0 84 1;
#X connect 83 0 82 0;
#X connect 84 0 82 1;
#X connect 85 0 125 0;
#X connect 86 0 79 0;
#X connect 87 0 86 0;
#X connect 88 0 123 0;
#X connect 89 0 90 0;
#X connect 90 0 91 0;
#X connect 91 0 93 1;
#X connect 91 0 94 1;
#X connect 93 0 92 0;
#X connect 94 0 92 1;
#X connect 95 0 89 0;
#X connect 96 0 95 0;
#X connect 97 0 121 0;
#X connect 98 0 99 0;
#X connect 99 0 100 0;
#X connect 100 0 102 1;
#X connect 100 0 103 1;
#X connect 102 0 101 0;
#X connect 103 0 101 1;
#X connect 104 0 98 0;
#X connect 105 0 104 0;
#X connect 106 0 119 0;
#X connect 107 0 108 0;
#X connect 108 0 109 0;
#X connect 109 0 111 1;
#X connect 109 0 112 1;
#X connect 111 0 110 0;
#X connect 112 0 110 1;
#X connect 113 0 107 0;
#X connect 114 0 113 0;
#X connect 115 0 418 0;
#X connect 116 0 421 0;
#X connect 117 0 75 0;
#X connect 117 0 76 0;
#X connect 117 1 399 1;
#X connect 118 0 420 0;
#X connect 119 0 111 0;
#X connect 119 0 112 0;
#X connect 119 1 388 1;
#X connect 120 0 419 0;
#X connect 121 0 102 0;
#X connect 121 0 103 0;
#X connect 121 1 393 1;
#X connect 122 0 416 0;
#X connect 123 0 93 0;
#X connect 123 0 94 0;
#X connect 123 1 395 1;
#X connect 124 0 415 0;
#X connect 125 0 83 0;
#X connect 125 0 84 0;
#X connect 125 1 397 1;
#X connect 126 0 127 0;
#X connect 127 0 128 0;
#X connect 128 0 130 1;
#X connect 128 0 131 1;
#X connect 130 0 129 0;
#X connect 131 0 129 1;
#X connect 132 0 342 0;
#X connect 133 0 126 0;
#X connect 134 0 146 0;
#X connect 135 0 133 0;
#X connect 136 0 343 0;
#X connect 137 0 138 0;
#X connect 138 0 139 0;
#X connect 139 0 141 1;
#X connect 139 0 142 1;
#X connect 141 0 140 0;
#X connect 142 0 140 1;
#X connect 143 0 137 0;
#X connect 144 0 143 0;
#X connect 145 0 148 0;
#X connect 146 0 135 0;
#X connect 147 0 144 0;
#X connect 148 0 144 0;
#X connect 149 0 135 0;
#X connect 150 0 344 0;
#X connect 151 0 152 0;
#X connect 152 0 153 0;
#X connect 153 0 155 1;
#X connect 153 0 156 1;
#X connect 155 0 154 0;
#X connect 156 0 154 1;
#X connect 157 0 151 0;
#X connect 158 0 157 0;
#X connect 159 0 158 0;
#X connect 160 0 345 0;
#X connect 161 0 162 0;
#X connect 162 0 163 0;
#X connect 163 0 165 1;
#X connect 163 0 166 1;
#X connect 165 0 164 0;
#X connect 166 0 164 1;
#X connect 167 0 161 0;
#X connect 168 0 167 0;
#X connect 169 0 168 0;
#X connect 170 0 171 0;
#X connect 171 0 172 0;
#X connect 172 0 174 1;
#X connect 172 0 175 1;
#X connect 174 0 173 0;
#X connect 175 0 173 1;
#X connect 176 0 346 0;
#X connect 177 0 170 0;
#X connect 178 0 177 0;
#X connect 179 0 347 0;
#X connect 180 0 181 0;
#X connect 181 0 182 0;
#X connect 182 0 184 1;
#X connect 182 0 185 1;
#X connect 184 0 183 0;
#X connect 185 0 183 1;
#X connect 186 0 180 0;
#X connect 187 0 186 0;
#X connect 188 0 187 0;
#X connect 189 0 187 0;
#X connect 190 0 178 0;
#X connect 191 0 348 0;
#X connect 192 0 193 0;
#X connect 193 0 194 0;
#X connect 194 0 196 1;
#X connect 194 0 197 1;
#X connect 196 0 195 0;
#X connect 197 0 195 1;
#X connect 198 0 192 0;
#X connect 199 0 198 0;
#X connect 200 0 199 0;
#X connect 201 0 199 0;
#X connect 202 0 349 0;
#X connect 203 0 204 0;
#X connect 204 0 205 0;
#X connect 205 0 207 1;
#X connect 205 0 208 1;
#X connect 207 0 206 0;
#X connect 208 0 206 1;
#X connect 209 0 203 0;
#X connect 210 0 209 0;
#X connect 211 0 210 0;
#X connect 212 0 210 0;
#X connect 213 0 159 0;
#X connect 214 0 158 0;
#X connect 215 0 169 0;
#X connect 216 0 168 0;
#X connect 217 0 212 0;
#X connect 218 0 201 0;
#X connect 219 0 189 0;
#X connect 220 0 221 0;
#X connect 221 0 178 0;
#X connect 222 0 223 0;
#X connect 223 0 224 0;
#X connect 224 0 226 1;
#X connect 224 0 227 1;
#X connect 226 0 225 0;
#X connect 227 0 225 1;
#X connect 228 0 353 0;
#X connect 229 0 222 0;
#X connect 230 0 242 0;
#X connect 231 0 229 0;
#X connect 232 0 352 0;
#X connect 233 0 234 0;
#X connect 234 0 235 0;
#X connect 235 0 237 1;
#X connect 235 0 238 1;
#X connect 237 0 236 0;
#X connect 238 0 236 1;
#X connect 239 0 233 0;
#X connect 240 0 239 0;
#X connect 241 0 244 0;
#X connect 242 0 231 0;
#X connect 243 0 240 0;
#X connect 244 0 240 0;
#X connect 245 0 231 0;
#X connect 246 0 351 0;
#X connect 247 0 248 0;
#X connect 248 0 249 0;
#X connect 249 0 251 1;
#X connect 249 0 252 1;
#X connect 251 0 250 0;
#X connect 252 0 250 1;
#X connect 253 0 247 0;
#X connect 254 0 253 0;
#X connect 255 0 254 0;
#X connect 256 0 350 0;
#X connect 257 0 258 0;
#X connect 258 0 259 0;
#X connect 259 0 261 1;
#X connect 259 0 262 1;
#X connect 261 0 260 0;
#X connect 262 0 260 1;
#X connect 263 0 257 0;
#X connect 264 0 263 0;
#X connect 265 0 264 0;
#X connect 266 0 267 0;
#X connect 267 0 268 0;
#X connect 268 0 270 1;
#X connect 268 0 271 1;
#X connect 270 0 269 0;
#X connect 271 0 269 1;
#X connect 272 0 354 0;
#X connect 273 0 266 0;
#X connect 274 0 273 0;
#X connect 275 0 355 0;
#X connect 276 0 277 0;
#X connect 277 0 278 0;
#X connect 278 0 280 1;
#X connect 278 0 281 1;
#X connect 280 0 279 0;
#X connect 281 0 279 1;
#X connect 282 0 276 0;
#X connect 283 0 282 0;
#X connect 284 0 283 0;
#X connect 285 0 283 0;
#X connect 286 0 274 0;
#X connect 287 0 356 0;
#X connect 288 0 289 0;
#X connect 289 0 290 0;
#X connect 290 0 292 1;
#X connect 290 0 293 1;
#X connect 292 0 291 0;
#X connect 293 0 291 1;
#X connect 294 0 288 0;
#X connect 295 0 294 0;
#X connect 296 0 295 0;
#X connect 297 0 295 0;
#X connect 298 0 357 0;
#X connect 299 0 300 0;
#X connect 300 0 301 0;
#X connect 301 0 303 1;
#X connect 301 0 304 1;
#X connect 303 0 302 0;
#X connect 304 0 302 1;
#X connect 305 0 299 0;
#X connect 306 0 305 0;
#X connect 307 0 306 0;
#X connect 308 0 306 0;
#X connect 309 0 255 0;
#X connect 310 0 254 0;
#X connect 311 0 265 0;
#X connect 312 0 264 0;
#X connect 313 0 308 0;
#X connect 314 0 297 0;
#X connect 315 0 285 0;
#X connect 316 0 317 0;
#X connect 317 0 274 0;
#X connect 318 0 49 0;
#X connect 318 1 424 0;
#X connect 319 0 60 0;
#X connect 319 1 431 0;
#X connect 320 0 115 0;
#X connect 320 1 430 0;
#X connect 321 0 116 0;
#X connect 321 1 429 0;
#X connect 322 0 118 0;
#X connect 322 1 428 0;
#X connect 323 0 120 0;
#X connect 323 1 427 0;
#X connect 324 0 122 0;
#X connect 324 1 426 0;
#X connect 325 0 124 0;
#X connect 325 1 425 0;
#X connect 326 0 134 0;
#X connect 326 1 149 0;
#X connect 327 0 145 0;
#X connect 327 1 147 0;
#X connect 328 0 213 0;
#X connect 328 1 214 0;
#X connect 329 0 215 0;
#X connect 329 1 216 0;
#X connect 330 0 217 0;
#X connect 330 1 211 0;
#X connect 331 0 218 0;
#X connect 331 1 200 0;
#X connect 332 0 219 0;
#X connect 332 1 188 0;
#X connect 333 0 220 0;
#X connect 333 1 190 0;
#X connect 334 0 230 0;
#X connect 334 1 245 0;
#X connect 335 0 241 0;
#X connect 335 1 243 0;
#X connect 336 0 309 0;
#X connect 336 1 310 0;
#X connect 337 0 311 0;
#X connect 337 1 312 0;
#X connect 338 0 313 0;
#X connect 338 1 307 0;
#X connect 339 0 314 0;
#X connect 339 1 296 0;
#X connect 340 0 315 0;
#X connect 340 1 284 0;
#X connect 341 0 316 0;
#X connect 341 1 286 0;
#X connect 342 0 130 0;
#X connect 342 0 131 0;
#X connect 343 0 141 0;
#X connect 343 0 142 0;
#X connect 344 0 155 0;
#X connect 344 0 156 0;
#X connect 345 0 165 0;
#X connect 345 0 166 0;
#X connect 346 0 174 0;
#X connect 346 0 175 0;
#X connect 347 0 184 0;
#X connect 347 0 185 0;
#X connect 348 0 196 0;
#X connect 348 0 197 0;
#X connect 349 0 207 0;
#X connect 349 0 208 0;
#X connect 350 0 261 0;
#X connect 350 0 262 0;
#X connect 351 0 251 0;
#X connect 351 0 252 0;
#X connect 352 0 237 0;
#X connect 352 0 238 0;
#X connect 353 0 226 0;
#X connect 353 0 227 0;
#X connect 354 0 270 0;
#X connect 354 0 271 0;
#X connect 355 0 280 0;
#X connect 355 0 281 0;
#X connect 356 0 292 0;
#X connect 356 0 293 0;
#X connect 357 0 303 0;
#X connect 357 0 304 0;
#X connect 358 0 326 0;
#X connect 358 0 333 0;
#X connect 358 0 332 0;
#X connect 358 0 331 0;
#X connect 358 0 330 0;
#X connect 358 0 329 0;
#X connect 358 0 328 0;
#X connect 358 0 327 0;
#X connect 358 0 360 0;
#X connect 359 0 326 1;
#X connect 359 0 333 1;
#X connect 359 0 332 1;
#X connect 359 0 331 1;
#X connect 359 0 330 1;
#X connect 359 0 329 1;
#X connect 359 0 328 1;
#X connect 359 0 327 1;
#X connect 359 0 361 0;
#X connect 360 0 334 0;
#X connect 360 0 341 0;
#X connect 360 0 340 0;
#X connect 360 0 339 0;
#X connect 360 0 338 0;
#X connect 360 0 337 0;
#X connect 360 0 336 0;
#X connect 360 0 335 0;
#X connect 361 0 334 1;
#X connect 361 0 341 1;
#X connect 361 0 340 1;
#X connect 361 0 339 1;
#X connect 361 0 338 1;
#X connect 361 0 337 1;
#X connect 361 0 336 1;
#X connect 361 0 335 1;
#X connect 363 0 7 0;
#X connect 364 0 7 0;
#X connect 365 0 7 0;
#X connect 366 0 7 0;
#X connect 367 0 7 0;
#X connect 368 0 7 0;
#X connect 369 0 7 0;
#X connect 370 0 7 0;
#X connect 371 0 7 0;
#X connect 372 0 7 0;
#X connect 373 0 7 0;
#X connect 374 0 7 0;
#X connect 375 0 7 0;
#X connect 376 0 7 0;
#X connect 377 0 7 0;
#X connect 378 0 106 0;
#X connect 379 0 381 0;
#X connect 381 0 117 0;
#X connect 381 0 119 0;
#X connect 381 0 121 0;
#X connect 381 0 123 0;
#X connect 381 0 125 0;
#X connect 381 0 385 0;
#X connect 381 0 386 0;
#X connect 381 0 387 0;
#X connect 381 0 391 0;
#X connect 382 0 384 0;
#X connect 384 0 117 0;
#X connect 384 0 119 0;
#X connect 384 0 121 0;
#X connect 384 0 123 0;
#X connect 384 0 125 0;
#X connect 384 0 385 0;
#X connect 384 0 386 0;
#X connect 384 0 387 0;
#X connect 384 0 390 0;
#X connect 385 0 66 0;
#X connect 385 0 67 0;
#X connect 385 1 401 1;
#X connect 386 0 56 0;
#X connect 386 0 57 0;
#X connect 386 1 403 1;
#X connect 387 0 4 0;
#X connect 387 0 5 0;
#X connect 387 1 405 1;
#X connect 388 0 378 0;
#X connect 388 1 406 0;
#X connect 389 0 388 0;
#X connect 389 0 393 0;
#X connect 389 0 395 0;
#X connect 389 0 397 0;
#X connect 389 0 399 0;
#X connect 389 0 405 0;
#X connect 389 0 403 0;
#X connect 389 0 401 0;
#X connect 390 0 389 0;
#X connect 391 0 389 0;
#X connect 392 0 97 0;
#X connect 393 0 392 0;
#X connect 393 1 407 0;
#X connect 394 0 88 0;
#X connect 395 0 394 0;
#X connect 395 1 408 0;
#X connect 396 0 85 0;
#X connect 397 0 396 0;
#X connect 397 1 409 0;
#X connect 398 0 70 0;
#X connect 399 0 398 0;
#X connect 399 1 410 0;
#X connect 400 0 61 0;
#X connect 401 0 400 0;
#X connect 401 1 411 0;
#X connect 402 0 51 0;
#X connect 403 0 402 0;
#X connect 404 0 6 0;
#X connect 405 0 404 0;
#X connect 405 1 413 0;
#X connect 414 0 50 0;
#X connect 415 0 87 0;
#X connect 416 0 96 0;
#X connect 417 0 59 0;
#X connect 418 0 69 0;
#X connect 419 0 105 0;
#X connect 420 0 114 0;
#X connect 421 0 78 0;
#X connect 424 0 50 0;
#X connect 425 0 87 0;
#X connect 426 0 96 0;
#X connect 427 0 105 0;
#X connect 428 0 114 0;
#X connect 429 0 78 0;
#X connect 430 0 69 0;
#X connect 431 0 59 0;
#X restore 1039 176 pd sons/trames;
#X obj 1043 106 metro 20;
#X obj 1039 200 counter 0 1;
#X obj 1039 222 sel 0 1;
#X obj 1039 243 bng 15 250 50 0 empty empty empty 17 7 0 10 -261234
-1 -1;
#X obj 1062 243 bng 15 250 50 0 empty empty empty 17 7 0 10 -232576
-1 -1;
#X connect 0 1 2 0;
#X connect 0 2 1 0;
#X connect 1 0 32 1;
#X connect 2 0 32 0;
#X connect 3 0 33 0;
#X connect 3 0 34 0;
#X connect 4 0 5 0;
#X connect 5 0 0 0;
#X connect 6 0 4 0;
#X connect 7 0 6 0;
#X connect 7 0 34 2;
#X connect 33 0 0 0;
#X connect 34 0 35 0;
#X connect 35 0 36 0;
#X connect 35 1 37 0;
#X connect 36 0 32 2;
#X connect 37 0 32 3;
